<?xml version="1.0" encoding="utf-8"?>
<!-- Generator: Adobe Illustrator 22.0.1, SVG Export Plug-In . SVG Version: 6.00 Build 0)  -->
<svg version="1.1" id="圖層_1" xmlns="http://www.w3.org/2000/svg" xmlns:xlink="http://www.w3.org/1999/xlink" x="0px" y="0px"
	 width="2426.5px" height="316.1px" viewBox="865.8 139.2 2426.5 316.1" style="enable-background:new 865.8 139.2 2426.5 316.1;"
	 xml:space="preserve">
<g>
	<path d="M2015.7,378.7h38.8c4.1,0,6.8-1,7.6-3.9c0.5-2.1-0.5-4.7-2.1-5.7c-2.1-1.6-4.9-1.1-7.8-1.6c-3.1-0.5-6.2-2.4-6.2-6.3v-122
		l50.5,95.9c2.8,4.9,7.6,4.9,9.7,0.5l49.3-98v122c0,6.8-8.8,8.7-14.8,8.9c-3.6,0-5.7,4.2-4.7,6.5c0.8,2.3,2.8,3.6,6.2,3.6h54
		c3.9,0,4.9-1.3,5.7-3.4c0.8-2.1-1-6.6-4.1-6.6c-5.3,0-13.4-2.4-13.4-8.9l-0.3-135c0-2.6,0.2-8,1.9-10.9c1.5-2.3,4-4.1,11.3-4.4
		c5.4-0.5,7.6-9.9-1.6-9.9h-33.6c-2.6,0-4.2,1.3-4.9,2.6l-49.3,99.6l-54.3-99.6c-0.8-1.6-2.9-2.4-5.7-2.4h-31.3
		c-9.1,0-8.3,10.1-1.8,9.9c8-0.2,13,2.1,13,8.9l-0.2,143.2c0,4.7-5.7,5.8-12,6.6c-3.4,0.2-5.7,4.4-4.5,7
		C2012,377.2,2013.4,378.7,2015.7,378.7L2015.7,378.7z M1135.2,453.9l-85.5-153.8h170.8L1135.2,453.9L1135.2,453.9z M1208.5,304.7
		h-146.8l73.5,46.1L1208.5,304.7z M1210.4,308.1l-72.7,46.7v84L1210.4,308.1z M1060,308.3l72.7,130.7l-0.2-84L1060,308.3L1060,308.3
		z M1043.2,293l-85.5-153.8h170.8L1043.2,293z M969.7,143.5l73.5,46.1l73.3-46.1H969.7z M1045.6,194v84l72.7-130.7L1045.6,194z
		 M968,147.4l72.7,130.8l-0.2-84L968,147.4L968,147.4z M957.8,455.3l85.5-153.8l85.3,153.8H957.8z M969.7,451h146.8l-73.3-46.1
		L969.7,451L969.7,451z M1045.6,400.7l72.7,46.7l-72.7-130.7V400.7L1045.6,400.7z M968,447.3l72.5-46.7l0.2-84L968,447.3z
		 M1135.2,140.6l85.3,153.8h-170.8L1135.2,140.6z M1061.7,290.1h146.8l-73.3-46.1L1061.7,290.1z M1210.4,286.7l-72.7-130.7v84
		L1210.4,286.7z M1132.5,239.6l0.2-84L1060,286.4L1132.5,239.6L1132.5,239.6z M951.3,140.6l85.3,153.8H865.8L951.3,140.6z
		 M951.3,244l-73.5,46.1h146.8L951.3,244L951.3,244z M876,286.5l72.5-46.7l0.2-84L876,286.5L876,286.5z M953.7,155.9v84l72.7,46.7
		L953.7,155.9z M865.8,300.3h170.8l-85.3,153.8L865.8,300.3z M877.7,304.7l73.5,46.1l73.3-46.1H877.7z M1026.2,308.1l-72.7,46.7v84
		L1026.2,308.1z M948.3,355.1l-72.5-46.7l72.7,130.7L948.3,355.1L948.3,355.1z M1324.2,215.1c1-4.9,6.8-7,11.3-8.9
		c7.4-3.1,15.3-5,23.1-6.4c30-5.4,63.8-5.1,80.9,16.2c11.7,14.6,11,38.1-1.6,51.7c-6.7,6.8-20.1,12.8-26.1,13.8
		c5.5,0,11.2,2.1,16.2,4c5,1.9,13.5,8.1,19.6,14.9c12.8,14.9,9.9,39.3,0.2,55.8c-5.5,9.4-15.2,15.9-24.7,20.3
		c-15.9,7.3-34.4,6.8-51.7,5.2c-15.1-1.4-30.5-2.9-43.6-11.2c-2.6-1.9-5.5-5.3-4.4-8.6c1.5-4,6.7-4,8.8-5c1.9-0.8,3-2.7,2.9-4.7
		l0.5-125.4c0-1.9-0.2-3.4-1.1-3.4C1329.7,223.4,1323.2,219.8,1324.2,215.1L1324.2,215.1z M1363.5,347.4c0,4.9,1.1,11.7,3.2,13.9
		c3.6,4.2,10.5,6,16.2,6.7c10.2,1.1,21.2-1,29.4-7.5c16.1-12.3,17.4-38.4,7-56c-4-7-10.9-11.7-18.5-14.1c-5.7-1.6-17.4-1.8-20-2.3
		c-4.2-0.6-7-5.7-5-9.4c2.4-4.2,8.1-3.6,12.8-4c8.3-1,17-3.2,22.7-9.2c7.3-7,9.6-18,7.9-27.6c-1.1-8.1-4.2-16.7-10.9-21.6
		c-8.6-6.3-22.2-7.5-32.6-3.6c-5.8,2.3-12.3,6.5-12.3,13.3L1363.5,347.4L1363.5,347.4L1363.5,347.4z"/>
	<path d="M2250.3,372.6c-9.1,18-19.8,35.1-31.8,51.3c-0.7,1.1-1.6,3.2,1.3,3.2h19.2c2.1,0,3.1,0,4.4-3.7l58.7-142.4
		c2.3-6,5.2-6.5,10.7-7.1c2.9-0.3,4-7.8-2.4-7.8H2276c-7.6,0-5.3,7.6-1.9,7.8c3.9,0.2,6.8,0.3,8.8,0.8c3.9,1,4.9,5.5,3.4,8.6
		l-24,61.3l-26.8-62.3c-1-2.4-0.7-5.4,1.8-6.7c2.3-1.5,6.2-1.3,7.4-1.3c3.6-0.2,5.5-8.3-2.4-8.3h-42.4c-7.8,0-5.8,8.1-1.9,8.1
		c6.5,0,9.9,2.8,12.5,8.8L2250.3,372.6L2250.3,372.6z M2914.7,345.7v-72.2c0-2.6-0.2-5.7-2.6-7.1c-1.8-0.6-4,0.3-7.1,1.5l-23.4,8.6
		c-4.2,1.3-4.7,5.8-2.6,7.8c1.3,1.3,3.7,1.5,6,1.5c3.9,0,6,3.2,6,4.9l0.5,57.6c0,9.7,1.8,18.2,7.8,24c7.8,7.8,19.6,9.2,31.1,8.4
		c10.5-0.7,20.4-5.1,27.9-12.5l2.3,10.9h31.3c8.1,0,8.1-8.7,1.6-8.7c-4.2,0-7.4-2.3-10.2-4.4c-1.5-1.1-2.6-3.7-2.6-8.3v-85.3
		c0-3.7-1.9-5.4-3.6-5.8c-1.9-0.6-5.2,0.5-7,1.3l-23,9.6c-4,1.8-4.2,5.7-2.9,7.6c1,1.1,2.6,1.3,3.9,1.3c5-0.2,8.6,1.5,8.6,4.4
		l0.2,54.2C2956.9,372.2,2914.7,378.2,2914.7,345.7L2914.7,345.7z M2739.7,297.4c-14.4-14.6-47-38.3-55.2-43.2
		c-7.9-4.9-12.5-15.6-10.2-24.8c1.5-6,5.5-10.9,10.5-13.8c7.1-3.9,17.9-3.6,23.5-1.8c13.8,4.5,24.8,14.3,32.5,26
		c1.8,2.7,6.6,0.8,7.8-2.4c0.8-1.9,0.8-4.5,0.8-6.3c-0.5-10.4-2.6-21.9-7-30.8c-0.8-1.9-2.8-5-5.5-5c-7-0.5-4.2,5.8-11,6.8
		c-1.5,0-4.2-0.6-6.5-1.1c-8.4-2.5-17.2-3.6-25.9-3.4c-11.5,0.5-23.5,3.6-32.5,10.5c-11.7,9.6-16.2,26.3-12.7,40.9
		c2.9,12.2,13,21.9,22.7,30c14.4,12.2,33.4,20.9,45.4,34.5c6.7,7.6,10.9,16.6,10.5,27.8c-0.5,7.7-4.1,14.8-10.1,19.6
		c-7.1,5.7-17.4,6.8-25.9,6.2c-9.4-0.5-18.8-5.4-26-11.9c-4.9-4-8.3-11-13.5-15.4c-2.7-2.1-7.1-3.1-9.7-0.3
		c-1.9,1.9-1.9,5.8-1.6,7.3l7.6,32.8c0.7,2.5,2.9,4.3,5.5,4.5c5.7,0,9.4-6.5,14.9-6.5c4,0,7.5,2.6,11.3,3.4
		c14.3,3.1,31.3,3.9,45.4-2.5c10.2-4.4,19.6-12.8,24.3-23.4C2758.2,335.5,2753.8,311.8,2739.7,297.4L2739.7,297.4z M3168,347.8
		c7.3-20.4,7.4-45.1-5.4-62.5c-7.4-10.2-19.9-18.8-32.4-19c-7,0-14.9,0.5-21.4,3.9c-3.2,1.9-7.8,6.3-5.7,10.1c1,1.5,1.8,2.3,4.4,2.3
		c3.4,0.2,6.5-2.6,9.6-3.1c6-1.1,12.3-0.5,17.4,3.4c10.4,8.3,11.9,27.1,12,36.2c0,1.3-0.2,27.3-7.6,38.3
		c-6.2,10.1-20.3,14.1-31.5,9.7c-5.5-2.1-10.4-8-10.4-13.6V203.1c0-2.6-0.7-4.9-2.8-5.8c-1.6-0.8-3.7-0.5-7.8,1.3l-22.2,9.7
		c-4.2,1.9-5.8,4.9-3.7,7.6c1.5,1.6,4.4,2.1,6.5,2.1c3.4,0,6.7,3.4,6.7,6.5v133.5c0,3.9-7.5,2.3-10.5,4c-2.3,1.5-2.9,4.6-1.4,6.9
		c0.1,0.2,0.3,0.4,0.4,0.6c1.3,1.4,2.9,2.4,4.7,3.1c15.9,7.6,34.4,10.4,52.6,9.4c11.5-0.8,23.8-3.9,32.6-11
		C3159.3,364.9,3164.9,356.9,3168,347.8L3168,347.8z M3249.5,266.3c-7,0-14.9,0.5-21.4,3.9c-3.2,1.9-7.8,6.3-5.7,10.1
		c1,1.5,1.8,1.9,4.4,2.3c2.8,0.3,6.5-2.8,9.5-3.1c6-1,12.3-0.5,17.4,3.4c10.4,8.3,11.7,27.1,12,36.2c0,1.3-0.3,27.1-7.7,38.3
		c-6.2,10.1-20.3,14.1-31.5,9.7c-5.5-2.1-10.4-7.9-10.4-13.6V203.1c0-2.6-0.6-4.9-2.8-6c-1.6-0.6-3.7-0.3-7.8,1.5l-22.2,9.7
		c-4.2,1.9-5.8,4.9-3.7,7.6c1.4,1.6,4.4,2.1,6.5,2.1c3.4,0,6.6,3.4,6.6,6.5V358c0,3.7-7.4,2.3-10.7,4c-2.4,1.6-2.8,5.3-0.8,7.4
		c1.3,1.4,2.9,2.4,4.7,3.1c15.9,7.6,34.4,10.4,52.6,9.4c11.5-0.8,23.8-3.9,32.6-11.1c7.3-6.1,12.9-14.2,16.1-23.2
		c7.1-20.4,7.5-45.1-5.3-62.6C3274.5,275.1,3259.4,266.5,3249.5,266.3L3249.5,266.3z M2876.1,422.6c-2.6-2.3-6.8-0.2-10.1-1.9
		l-1.5-1.4c-0.8-1-1.3-2.2-1.6-3.4l0.2-99.5c0-16.1-0.3-34.6,3.4-50.6c0.3-2.1-2.4-4.1-4.4-4.6c-2.3-0.5-4.7,0.8-6.6,2.1
		c-3.2,2.1-5.5,5.7-7,9.7c-21.7-10.5-50.6-10.9-68,6.8c-8.9,9.1-14.1,22.9-15.3,34.5c-1.9,16.2-0.3,33.3,7.8,47.1
		c5.4,8.7,13.6,15.9,23.9,18.8c8.1,2.4,17.7,2.1,25.6,0c6.2-1.6,13.8-6.3,11.5-12c-1.8-4.9-8.7-1.6-13.1-0.3
		c-6.7,1.9-13.6,0.3-18-3.2c-5.5-4.5-8.6-12.2-10.1-18c-3.9-15.7-4.2-35.2,3.1-50.9c2.8-6,7-11.3,12.8-14.3
		c5.4-2.6,11.7-2.4,17.2-0.6c4.4,1.3,7,2.6,9.7,5.8c2.6,3.4,4,8.4,4,11.7v116.2c0,2.4-1.1,5.2-3.2,6.6c-3.7,1.9-9.1-0.8-12.2,1.9
		c-1.8,1.5-2.4,4-1.1,5.8c1.1,1.9,3.6,1.9,5.7,2.4h39.7c3.2-0.5,7.6,0,8.9-2.9C2878.5,426.5,2877.6,424,2876.1,422.6z M2358.6,366.8
		c-8-2.4-14.9-10.1-18-16.9c-7-15.6-7.1-33.9-1.6-50.1c2.6-8,7-15.9,14.8-19.3c5.2-2.3,11.1-2.9,16.4-0.8c6,2.6,10.9,8.1,11.8,14.6
		c0.7,4.2-1.8,10.2-4.2,12l-29.5,19.3c-2.9,1.9-4.2,6.8-2.1,9.8c1.9,2.6,6.7,2.3,9.4,0.6l42.2-25.6c5.4-3.1,10.4-8.9,9.8-15.6
		c-1.1-9.9-9.4-18-18-22.4c-18-9.6-42-7.8-58.4,4.4c-18.8,14.1-24.5,40.2-19.6,62.9c3.6,17.2,16.2,33,33.2,39.1
		c12.6,3.9,26.1,4,38.8,0.3c4.6-1.4,8.9-3.3,13-5.8c5.2-3.1,10.4-7,13-11.7c1.1-2.1,1.9-4.4,1.6-6.8c-0.7-2.8-4.2-4.5-7-3.7
		c-5.2,1.6-12.6,10.5-19.3,13.6C2377,368.3,2366.8,369.4,2358.6,366.8L2358.6,366.8z M2530.9,302.9c-1.8-1.4-6.7-4.7-8.3-10.2
		c-1.1-4,1.3-8.9,4.9-11.7c6.8-4.9,16.7-2.1,23.4,2.8c5.2,4,9.4,9.6,12.5,14.4c1.6,2.9,8-1,7.4-3.7l-4.9-23.4c-0.5-2.4-1.9-3.9-4-4
		c-4-0.6-6.7,4-7.6,3.6c-12-4.1-26.8-6.2-39.1-0.7c-5.8,2.1-11.2,6.2-14.1,12c-4.6,8-4.2,18.2,0,26c2.4,4.7,5.5,8,9.2,10.7
		c10.5,7.9,21.4,15.3,32.6,22.2c7.3,4.7,10.7,15.6,5.7,22.5c-3.4,4.7-9.7,6.3-15.6,6.3c-9.6-0.8-18-6.8-23.8-14.4
		c-3.1-3.7-5.8-9.2-10.5-7.8c-2.1,0.8-4.6,2.9-3.6,7.8l4.2,24.2c0.3,1.9,1.9,3.1,3.1,3.1c3.7,0,3.9-2.1,6.6-3.2
		c2.1-1,4.4-1.4,6.7-1.3c3.2,0.5,5.7,2.3,8.9,2.8c17.5,3.6,39.4-1.3,47.5-17.8c4.7-9.6,4.1-22.2-2.1-31
		C2555.5,311.4,2549.8,319.1,2530.9,302.9L2530.9,302.9z M1621.4,355.4c-3.1-3.7-5.8-9.2-10.5-7.8c-2.1,0.7-4.4,2.9-3.6,7.8l4.2,24
		c0.3,1.9,1.9,3.3,3.1,3.3c3.7,0,3.9-2.1,6.7-3.4c2.3-1,4.2-1.3,6.7-1.1c3.2,0.3,5.7,2.1,8.9,2.8c17.5,3.6,39.4-1.5,47.5-17.8
		c4.7-9.8,4-22.2-2.1-31c-13.4-19.1-19.7-13.3-39.1-29.1c-1.8-1.4-6.7-4.9-8.3-10.2c-1.1-4.1,1.3-8.9,4.9-11.7
		c6.8-4.9,16.9-2.1,23.4,2.7c5.2,4.1,9.4,9.4,12.5,14.4c1.6,2.9,8-1.1,7.5-3.7l-4.9-23.5c-0.5-2.3-1.9-3.7-4-4
		c-4.1-0.5-6.7,4-7.6,3.7c-11.8-4-26.8-6.2-39.1-0.8c-15.1,6.6-22.6,22-14.1,38.1c2.4,4.5,5.5,8,9.2,10.7
		c10.1,7.6,21.6,15.1,32.6,22.2c7.5,4.7,10.7,15.6,5.7,22.5c-3.4,4.7-9.7,6.3-15.6,6.2C1635.7,369,1627.3,363,1621.4,355.4
		L1621.4,355.4z M1517.8,267l-4,1.5c-6.5,2.4-10.9,8.6-13.8,14.8v-13.6c0-3.2-2.4-3.9-7-2.1l-26.6,10.7c-3.7,1.5-4,5.2-2.3,7
		c1.3,1.6,3.9,1.8,5.8,1.8c2.9,0,6.7,0.3,6.7,4v73.8c0,5.2-7.6,2.9-11.7,5.2c-2.6,1.3-2.9,5-1.5,7c0.9,1.1,2.3,1.7,3.7,1.6h43
		c2.6,0,4.7-1.6,5.2-3.7c0.1-1.6-0.5-3.1-1.6-4.2c-3.2-2.7-8.6-0.2-11.5-3.2c-1-1.1-1.8-1.9-1.8-3.4v-55.8c0-8.4,3.6-17.7,11-21.6
		c2.1-1.1,4.5-1.5,6.8-1.3c4.4,0.3,8.8,1.8,12.5,4.9c1.1,1.1,2.6,0.8,3.6-0.6l8.1-11.2c3.6-5.4-5.7-10.4-11.5-11.7
		C1526.6,265.8,1522.2,266.1,1517.8,267L1517.8,267z M2469.2,267l-4,1.5c-6.5,2.4-10.9,8.6-13.8,14.8v-13.6c0-3.2-2.4-3.9-7-2.1
		l-26.6,10.7c-3.7,1.5-4,5.2-2.3,7c1.3,1.6,3.9,1.8,5.8,1.8c2.9,0,6.6,0.3,6.6,4v73.8c0,5.2-7.6,2.9-11.7,5.2c-2.6,1.3-2.9,5-1.4,7
		c0.9,1.1,2.3,1.7,3.7,1.6h43c2.6,0,4.7-1.6,5.2-3.7c0.1-1.6-0.5-3.1-1.6-4.2c-3.2-2.7-8.6-0.2-11.5-3.2c-1-1.1-1.8-1.9-1.8-3.4
		v-55.8c0-8.4,3.6-17.7,11-21.6c2.1-1.1,4.5-1.5,6.8-1.3c4.4,0.3,8.8,1.8,12.5,4.9c1.1,1.1,2.6,0.8,3.6-0.6l8.1-11.2
		c3.6-5.4-5.7-10.4-11.5-11.7C2478,265.8,2473.6,266.1,2469.2,267L2469.2,267z M1754.6,374.3c1.6-1.3,3.2-4.9,2.4-7.3
		c-0.6-2.1-2.4-3.1-4.9-3.4c-5.4-0.8-8,3.6-14.1,3.4c-3.7-0.2-6.5-3.4-6.5-8.1v-74.6c0-2.4,1.9-4.7,4.1-4.7h16.5
		c4.9,0,4.9-9.6,0-9.6h-20.6v-42.7c0-3.9-2.4-4.9-5-3.6l-16.9,9.4c-1.5,0.8-2.1,1.8-2.1,3.7V270H1693c-4.5,0-4.5,9.6,0,9.6h11
		c2.4,0,3.6,1.3,3.6,4.7v74.6c0,8.1,4.7,17.9,10.5,20.4c7.1,3.6,16.7,3.2,23.5,1.3C1747.5,379,1751.7,376.9,1754.6,374.3
		L1754.6,374.3z M1999.7,334.3c1.5,0,2.7-1.5,2.7-2.8v-12.7c0-1.5-1.2-2.7-2.7-2.8h-57.4c-1.3,0-2.8,1.3-2.8,2.8v12.7
		c0,1.3,1.5,2.8,2.8,2.8H1999.7z M1882.5,378.7h43.8c3.4,0,4.9-6,1.6-8.3c-2.1-1.5-6.2-1-8.9-1.9c-2.3-0.7-4-2.9-4-4.9V200.7
		c0-2.8-2.4-4.6-7.6-2.6l-24.5,10.1c-4.2,1.6-5.4,5.8-3.6,7.8c0.9,0.8,2,1.3,3.2,1.3c6.5,0,8.9,1.1,8.9,7.5v138.9
		c0.1,2.1-1.2,4.1-3.2,4.9c-3.4,1.6-8.9-0.3-10.5,3.7C1876.5,375.1,1878.6,378.7,1882.5,378.7L1882.5,378.7z M1598.4,369.9
		c-4.4-0.2-6.3-0.6-7.8-1.9c-1.5-1.1-3.1-3.2-3.1-5.2v-92.6c0-2.9-3.7-5-7.3-3.4l-27.6,11.3c-2.6,1.3-3.6,4.7-1.6,6.7
		c1.1,1,2.6,1.5,3.7,1.5c3.7,0.2,8.9,1,8.9,6.3v70.2c0,2.1-3.6,5.7-6.5,6c-3.6,0.5-7.1,1.8-7.3,4.7c-0.2,2.8,1.8,4.9,4.9,4.9h42.2
		c3.1,0,4.4-1.8,4.9-3.3C1601.8,373.3,1601.1,370.2,1598.4,369.9L1598.4,369.9z M3042.1,368c-1.5-1.1-3.1-3.2-3.1-5.2v-92.6
		c0-2.9-3.7-5-7.3-3.4l-27.6,11.4c-2.6,1.3-3.6,4.7-1.6,6.6c1,0.9,2.4,1.4,3.7,1.5c3.7,0.2,8.9,1,8.9,6.3v70.2c0,2.4-3.7,5.7-6.5,6
		c-3.5,0.5-7.1,1.8-7.3,4.7c-0.2,2.7,1.8,4.9,4.9,4.9h42.2c3.1,0,4.4-1.8,4.9-3.2c0-1.8-0.7-4.9-3.4-5.2
		C3045.5,369.8,3043.5,369.3,3042.1,368L3042.1,368z M3025.8,207.8c-8.3,0-15.1,6.8-15.1,14.9c0,8.4,6.8,15.3,15.1,15.3
		c8.3,0,14.9-6.8,14.9-15.3C3040.7,214.7,3034.1,207.8,3025.8,207.8z M1589.4,222.9c0-8.3-6.8-14.9-14.9-14.9
		c-8.4,0-15.3,6.7-15.3,14.9s6.8,15.1,15.3,15.1C1582.6,238,1589.4,231.2,1589.4,222.9z"/>
	<path d="M1840.8,376.7c-16,7.8-41.9,7.5-59.4-1.9c-15.3-8.3-28.1-36.2-26.2-55.8c2.6-27,14.2-41.3,30.7-48
		c20.9-8.4,43.2-5.7,56.4,1.2c16.8,8.8,27.5,26,28,44.9C1872.4,337.6,1862,366.3,1840.8,376.7L1840.8,376.7z M1790.1,289.7
		c-10.9,14.5-12.5,46.8-2.6,65.5c11.3,21.2,38.2,19.5,49.8,0.6c9.8-16.1,11.2-46.8-0.5-64.6C1825.7,274.3,1804,271.8,1790.1,289.7
		L1790.1,289.7z"/>
</g>
</svg>
