<?xml version="1.0" encoding="UTF-8"?>
<svg width="240px" height="66px" viewBox="0 0 240 66" version="1.1" xmlns="http://www.w3.org/2000/svg" xmlns:xlink="http://www.w3.org/1999/xlink">
    <title>畫板</title>
    <g id="畫板" stroke="none" stroke-width="1" fill="none" fill-rule="evenodd">
        <path d="M119.999374,0 C123.408363,0 126.669432,0.36230662 129.782581,1.08805562 C132.894592,1.81380462 135.784723,2.84847963 138.452974,4.19548795 C141.120087,5.5413605 143.551666,7.1768512 145.745434,9.09968853 C147.939203,11.0225259 149.80641,13.1827365 151.348192,15.5791847 C152.888837,17.9756328 154.082438,20.5946895 154.927858,23.4352188 C155.77214,26.2757481 156.19542,29.2786908 156.19542,32.4463183 C156.19542,35.7899881 155.77214,38.9405792 154.927858,41.8992273 C154.082438,44.8578754 152.888837,47.580286 151.348192,50.0653233 C149.80641,52.5514963 147.939203,54.7787166 145.745434,56.7458485 C143.551666,58.7129803 141.120087,60.3848153 138.452974,61.7613533 C135.784723,63.1367555 132.894592,64.1884669 129.782581,64.9119444 C126.669432,65.6376934 123.408363,66 119.999374,66 C116.590385,66 113.329316,65.6217928 110.217305,64.8676498 C107.104156,64.1135069 104.214025,63.0413519 101.545774,61.650049 C98.8786614,60.259882 96.4470828,58.5732822 94.2533141,56.5902497 C92.0595454,54.608353 90.1923388,52.3731824 88.6505563,49.8881451 C87.1087739,47.4019721 85.9163104,44.7034124 85.0708902,41.7879231 C84.2266079,38.8747053 83.8033289,35.7899881 83.8033289,32.5349073 C83.8033289,29.3377502 84.2266079,26.3132281 85.0708902,23.4567982 C85.9163104,20.6026398 87.1087739,17.9756328 88.6505563,15.5791847 C90.1923388,13.1827365 92.0595454,11.0145756 94.2533141,9.07697338 C96.4470828,7.1393712 98.8786614,5.5038805 101.545774,4.1727728 C104.214025,2.84052933 107.104156,1.81380462 110.217305,1.08805562 C113.329316,0.36230662 116.590385,0 119.999374,0 Z M47.8453211,0.665553854 L64.1199442,41.9878164 L79.7721651,1.376538 L90.1322605,1.376538 L65.2316206,65.5559188 L58.2065543,65.5559188 L45.2225842,32.5337716 L32.4604942,65.5559188 L25.3910519,65.5559188 L0,1.376538 L15.6078449,1.376538 L31.7038261,42.2092891 L47.8453211,0.665553854 Z M197.713061,0.665553854 L213.986546,41.9878164 L229.638767,1.376538 L240,1.376538 L215.098222,65.5559188 L208.073156,65.5559188 L195.089186,32.5349073 L182.327096,65.5559188 L175.257654,65.5559188 L149.866602,1.376538 L165.474447,1.376538 L181.570428,42.2092891 L197.713061,0.665553854 Z M119.999374,5.37099689 C116.887363,5.37099689 114.144014,6.03655074 111.773879,7.36765845 C109.401469,8.69876615 107.422753,10.5636799 105.836595,12.960128 C104.250436,15.357712 103.050008,18.2198207 102.23531,21.5487257 C101.419473,24.8776307 101.012124,28.5393127 101.012124,32.5349073 C101.012124,36.5884256 101.419473,40.3318821 102.23531,43.7630053 C103.050008,47.1964 104.250436,50.1618626 105.836595,52.6616647 C107.422753,55.1637384 109.401469,57.1161054 111.773879,58.5221731 C114.144014,59.927105 116.887363,60.6290031 119.999374,60.6290031 C123.081801,60.6290031 125.802393,59.927105 128.158874,58.5221731 C130.515355,57.1161054 132.49407,55.1637384 134.095021,52.6616647 C135.695971,50.1618626 136.903227,47.1964 137.719063,43.7630053 C138.534899,40.3318821 138.942248,36.5884256 138.942248,32.5349073 C138.942248,28.5393127 138.534899,24.8776307 137.719063,21.5487257 C136.903227,18.2198207 135.695971,15.357712 134.095021,12.960128 C132.49407,10.5636799 130.515355,8.69876615 128.158874,7.36765845 C125.802393,6.03655074 123.081801,5.37099689 119.999374,5.37099689 Z" id="合併形狀" fill="#FFFFFF"></path>
    </g>
</svg>