<svg xmlns="http://www.w3.org/2000/svg" viewBox="0 0 992.0562134 221.2500763" enable-background="new 0 0 992.0562134 221.2500763">
 <switch>
  <g>
   <path d="m752.9 83.06c.88-2.826 1.898-5.152 2.289-7.58.516-3.199 2.202-3.809 5.151-3.715 6.842.217 13.696.069 20.929.069-1.255 9.834-2.428 19.31-3.679 28.777-2.419 18.307-4.83 36.615-7.344 54.909-1.848 13.445-6.185 25.707-17.15 34.68-7.587 6.212-16.445 9.287-26.03 10.44-16.548 1.991-32.03-1.165-46.27-9.965-1.035-.64-1.969-1.444-3.216-2.368 3.705-6.113 7.291-12.03 10.917-18.02 9.655 6.265 19.531 10.264 30.892 9.786 11.881-.5 19.12-5.926 22.275-17.394 1.111-4.04 1.743-8.213 1.987-12.608-1.193 1.208-2.366 2.436-3.582 3.619-13.93 13.56-38.39 12.312-50.08-2.555-4.129-5.249-6.382-11.337-7.14-17.856-2.162-18.58 1.663-35.63 14.471-49.778 10.192-11.258 23.04-15.926 38.18-13.09 7.641 1.43 12.12 4.867 17.397 12.649m-3.835 27.02c-.124-1.087-.277-2.701-.495-4.306-1.793-13.21-13.763-19.17-25.23-12.314-2.803 1.676-5.432 4.127-7.29 6.811-5.702 8.236-7.707 17.497-5.917 27.4 2.205 12.198 12.889 17.738 23.859 11.907 3.769-2 7.107-5.497 9.616-9.04 4.135-5.833 5.18-12.854 5.454-20.462" fill="#2d5696"/>
   <path d="m386.07 39.12c8.217 42.573 16.365 84.78 24.557 127.23-9.654 0-18.871 0-28.5 0-1.474-8.493-2.958-17.04-4.505-25.954-1.197-.063-2.396-.179-3.596-.181-12.244-.013-24.49.096-36.732-.085-2.876-.042-4.112 1.012-5.142 3.525-3.12 7.61-6.5 15.11-9.81 22.728-8.694 0-17.294 0-26.471 0 .476-1.272.815-2.376 1.289-3.419 18.316-40.29 36.665-80.57 54.919-120.9 1.033-2.281 2.23-3.056 4.734-3.01 9.606.164 19.217.067 29.26.067m-43.63 79.18c10.97 0 21.364 0 31.994 0-3.02-17.578-5.987-34.831-8.952-52.08-.237-.004-.473-.008-.71-.012-7.392 17.243-14.783 34.485-22.333 52.1" fill="#2d5696"/>
   <path d="m861.42 83.65c.984-3.49 1.665-6.491 2.724-9.351.37-.999 1.656-2.332 2.553-2.355 7.472-.189 14.952-.107 23.01-.107-4.13 31.693-8.214 63.04-12.312 94.49-8.337 0-16.406 0-24.909 0 0-3.819 0-7.487 0-11.848-1.095 1.03-1.638 1.471-2.099 1.985-9.536 10.655-21.321 14.548-35.17 11.03-13.448-3.42-20.244-13.299-22.707-26.15-3.891-20.306-.666-39.4 12.442-55.911 9.646-12.149 22.52-17.552 38.07-15.32 7.27 1.044 12.96 4.991 16.887 11.305.374.601.792 1.175 1.51 2.233m-4.21 29.23c0-1.748.141-3.509-.024-5.241-.812-8.517-5.096-14.629-11.55-16.321-6.706-1.759-12.304.572-17.05 5.213-9.307 9.1-13.193 29.348-8.04 41.35 2.77 6.447 7.753 9.618 14.774 9.177 7.293-.457 12.179-4.759 15.83-10.611 4.48-7.182 6.229-15.16 6.06-23.567" fill="#2d5696"/>
   <path d="m910.43 71.971c8.485 0 16.445 0 24.709 0 0 3.938 0 7.751 0 12.177 1.282-1.226 2.154-1.986 2.941-2.825 10.118-10.783 22.646-13.732 36.633-10.576 11 2.483 17.741 11.697 17.329 24.04-.324 9.706-1.682 19.391-2.841 29.05-1.693 14.11-3.619 28.19-5.469 42.46-8.977 0-17.779 0-26.896 0 1.178-9.109 2.31-18 3.48-26.886 1.337-10.148 2.845-20.276 4.01-30.444.626-5.472.382-11.147-5.155-14.23-5.836-3.25-11.681-2.02-16.833 1.92-6.577 5.03-9.953 11.716-10.87 20.07-1.771 16.13-4.075 32.2-6.169 48.29-.046.357-.228.697-.419 1.26-8.769 0-17.564 0-26.733 0 4.1-31.478 8.176-62.764 12.284-94.3" fill="#2d5696"/>
   <path d="m590.06 138.08c3.06 5.183 6.094 10.323 9.357 15.85-2.032 1.664-3.882 3.522-6.04 4.892-14.255 9.04-29.783 11.999-46.25 8.505-14.08-2.987-23.306-11.827-26.772-25.786-5.03-20.244-1.54-38.967 12.11-55.14 12.839-15.205 34.32-20.878 53.17-14.385 10.1 3.479 16.815 10.05 18.387 21.03 1.526 10.657-2.379 19.1-10.769 25.537-8.95 6.87-19.386 10.151-30.35 11.861-5.775.901-11.623 1.339-17.466 1.989-.986 7.551 4.976 14.293 13.719 15.325 10.187 1.202 19.18-2.074 27.609-7.439 1.051-.67 2.063-1.402 3.292-2.242m-44.04-23.953c3.104-.311 6.27-.248 9.227-1 6.107-1.558 12.408-2.899 18.06-5.549 5.543-2.601 7.218-8.727 5.144-13.726-1.86-4.484-7.06-6.752-12.973-5.656-10.86 2.01-19.57 13.441-19.455 25.934" fill="#2e5696"/>
   <path d="m448.87 166.35c-9.02 0-17.715 0-26.94 0 5.679-43.686 11.33-87.16 17-130.81 9 0 17.8 0 26.941 0-5.671 43.622-11.312 87.01-17.01 130.81" fill="#2e5696"/>
   <path d="m496.4 166.31c-9.099 0-17.911 0-26.946 0 5.69-43.725 11.35-87.23 17.02-130.77 9.07 0 17.756 0 26.928 0-5.674 43.647-11.314 87.04-16.999 130.77" fill="#2d5696"/>
   <path d="m638.23 166.5c-8.178 0-16.17 0-24.16 0-.608 0-1.216 0-2.444 0 4.121-31.665 8.2-63.01 12.296-94.49 8.359 0 16.42 0 24.832 0 0 4.45 0 8.733 0 12.907 3.318-3.52 6.21-7.278 9.775-10.219 6.427-5.302 13.93-6.327 21.889-3.944 2.389.715 3.301 1.963 2.536 4.72-1.995 7.191-3.63 14.482-5.457 21.934-1.999-.487-3.761-1.065-5.569-1.331-7.02-1.035-13.06.876-18.02 6.101-6.772 7.137-9.52 15.768-10.462 25.402-1.226 12.543-3.079 25.02-4.677 37.53-.045.354-.26.686-.538 1.389" fill="#2d5696"/>
   <path d="m90 50.631c-.002-12.476 10.12-22.676 22.584-22.759 12.533-.083 23.01 10.425 22.854 22.92-.156 12.484-10.418 22.631-22.83 22.576-12.456-.056-22.606-10.264-22.608-22.737" fill="#44af2c"/>
   <path d="m90.01 170.45c.064-12.432 10.361-22.632 22.78-22.565 12.425.066 22.666 10.345 22.665 22.749-.001 12.559-10.518 22.946-23.03 22.748-12.485-.197-22.477-10.421-22.412-22.931" fill="#44af2c"/>
   <path d="m108.78 110.77c-.047 12.463-10.273 22.637-22.724 22.61-12.442-.027-22.646-10.24-22.686-22.705-.041-12.577 10.424-22.963 22.969-22.798 12.499.165 22.488 10.355 22.44 22.892" fill="#44af2c"/>
   <path d="m232.52 110.6c.013-12.432 10.232-22.679 22.662-22.72 12.393-.041 22.709 10.16 22.848 22.594.14 12.467-10.387 22.99-22.912 22.905-12.447-.084-22.61-10.329-22.597-22.78" fill="#2e5696"/>
   <path d="m206.03 50.805c-.083-12.577 9.841-22.755 22.361-22.931 12.44-.175 22.794 9.936 22.922 22.386.132 12.752-9.919 23.05-22.566 23.12-12.473.068-22.635-10.03-22.718-22.573" fill="#2e5696"/>
   <path d="m251.32 170.67c-.018 12.521-10.114 22.66-22.608 22.707-12.616.047-22.792-10.266-22.681-22.987.11-12.539 10.311-22.627 22.771-22.518 12.51.109 22.536 10.26 22.517 22.798" fill="#2e5696"/>
   <path d="m170.25.001c12.451.088 22.56 10.364 22.467 22.841-.092 12.431-10.391 22.625-22.807 22.577-12.43-.048-22.731-10.354-22.706-22.715.026-12.58 10.393-22.793 23.05-22.703" fill="#3e86ca"/>
   <path d="m170.09 221.25c-12.61.036-23-10.343-22.887-22.864.112-12.399 10.523-22.666 22.867-22.548 12.521.12 22.627 10.262 22.647 22.73.02 12.465-10.136 22.646-22.627 22.682" fill="#3e86ca"/>
   <path d="m209.05 123.06c-6.917-.05-12.405-5.494-12.457-12.354-.053-6.984 5.575-12.546 12.671-12.522 6.854.023 12.428 5.539 12.488 12.359.061 6.933-5.658 12.569-12.701 12.518" fill="#4087ca"/>
   <path d="m198.7 67.824c-.094 6.928-5.934 12.548-12.871 12.386-6.759-.158-12.361-5.956-12.229-12.656.136-6.871 5.694-12.369 12.498-12.362 7.01.007 12.696 5.71 12.602 12.633" fill="#4087ca"/>
   <path d="m186.1 165.95c-7.08-.018-12.649-5.656-12.496-12.645.148-6.771 5.846-12.312 12.616-12.268 6.937.046 12.606 5.84 12.487 12.762-.117 6.82-5.666 12.169-12.606 12.152" fill="#4087ca"/>
   <path d="m40.14 98.18c7.07.064 12.506 5.668 12.366 12.746-.136 6.866-5.632 12.158-12.601 12.13-7.091-.027-12.424-5.548-12.305-12.738.115-6.926 5.565-12.202 12.539-12.139" fill="#a3d235"/>
   <path d="m82.61 153.59c-.019 7.01-5.28 12.317-12.273 12.371-7.166.055-12.633-5.337-12.615-12.442.018-7.02 5.662-12.566 12.688-12.469 6.832.094 12.219 5.631 12.2 12.54" fill="#a3d235"/>
   <path d="m82.61 67.791c-.026 6.878-5.499 12.386-12.332 12.411-7.03.025-12.588-5.557-12.556-12.604.032-6.92 5.406-12.267 12.373-12.31 7.178-.044 12.542 5.315 12.515 12.504" fill="#a3d235"/>
   <path d="m39.896 89.11c-4.473-.056-8.31-3.95-8.305-8.431.004-4.472 3.847-8.353 8.328-8.413 4.632-.062 8.589 3.955 8.491 8.62-.094 4.47-4.04 8.28-8.514 8.224" fill="#c5d506"/>
   <path d="m48.42 140.6c-.018 4.49-3.874 8.356-8.363 8.385-4.463.029-8.376-3.801-8.46-8.281-.087-4.612 3.954-8.667 8.539-8.57 4.492.095 8.302 3.989 8.284 8.466" fill="#c5d506"/>
   <path d="m0 110.58c.024-4.557 3.786-8.36 8.297-8.389 4.703-.03 8.441 3.852 8.341 8.663-.095 4.604-3.883 8.289-8.43 8.202-4.541-.088-8.233-3.899-8.208-8.476" fill="#c5d507"/>
   <path d="m159.41 85.53c-4.662-.041-8.441-3.684-8.504-8.199-.064-4.639 3.861-8.411 8.71-8.368 4.562.04 8.344 3.879 8.262 8.388-.083 4.57-3.862 8.22-8.469 8.18" fill="#81ade2"/>
   <path d="m189.12 110.74c-.039 4.649-3.816 8.488-8.242 8.379-4.5-.111-8.317-3.962-8.353-8.426-.037-4.598 4.01-8.633 8.587-8.572 4.453.059 8.05 3.928 8.01 8.619" fill="#81ade2"/>
   <path d="m159.42 152.28c-4.658-.038-8.441-3.679-8.512-8.193-.073-4.644 3.844-8.415 8.701-8.376 4.568.036 8.343 3.859 8.271 8.377-.073 4.563-3.859 8.229-8.46 8.192" fill="#81ade2"/>
  </g>
 </switch>
</svg>
