<?xml version="1.0" encoding="UTF-8"?>
<svg width="2428px" height="958px" viewBox="0 0 2428 958" version="1.1" xmlns="http://www.w3.org/2000/svg" xmlns:xlink="http://www.w3.org/1999/xlink">
    <title>dior</title>
    <g id="Page-1" stroke="none" stroke-width="1" fill="none" fill-rule="evenodd">
        <g id="dior" fill="#000000" fill-rule="nonzero">
            <path d="M99.2746477,22.7366411 L53.3357405,20.3631742 L34.3998838,16.5760028 L30.6127124,9.46857167 C30.6127124,2.84102181 35.3466766,0.000643300338 44.8275748,0.000643300338 L519.871153,0.000643300338 C742.471228,0.000643300338 898.756895,67.7287555 989.700886,203.651892 C1041.80043,282.274606 1067.84372,375.579095 1067.84372,483.565357 C1067.84372,539.931955 1059.32258,594.391998 1041.78746,646.958455 C1021.90481,702.378261 994.43485,751.170516 958.910664,794.748926 C920.066218,840.674864 872.713607,876.212019 818.240594,902.255307 C759.98041,928.778476 694.625765,942.513457 621.216896,942.513457 L15.4510573,942.513457 C5.50324763,942.513457 0.769283446,939.193198 0.769283446,933.52541 C0.769283446,927.364772 7.8767146,924.057482 21.1318143,924.057482 L137.172301,916.963021 C155.174334,914.576584 167.962523,909.362738 174.123161,902.268277 L185.964556,885.679948 C190.231609,874.331403 192.605076,857.289132 193.071987,834.073253 L193.071987,82.8904107 C193.071987,53.526863 176.496628,35.5248293 144.292702,28.4173982 L99.2746477,22.7366411 Z M355.038411,35.5248293 L351.718151,54.4736558 L351.718151,888.520326 C351.718151,897.988255 353.611737,904.602835 357.398908,906.989271 L376.347735,909.82965 L438.862002,909.82965 L583.786155,904.615804 C622.617631,900.361722 655.76835,894.201083 681.824607,885.666978 C707.731822,876.216553 732.015006,862.801735 753.806802,845.901679 C772.755629,830.273112 792.171367,808.004026 813.49366,779.587271 C849.004877,733.181452 874.581253,673.974476 890.20982,601.512399 C899.677748,554.172757 904.424682,508.22088 904.424682,464.175559 C904.424682,425.344083 898.743925,383.659258 886.90253,338.667144 C870.32717,273.77941 845.217705,216.945901 809.693519,168.633526 C741.018614,74.8621262 628.298388,28.4433377 472.479632,28.4433377 L376.334765,28.4433377 C365.453132,27.4706053 358.345701,29.8440723 355.038411,35.5248293 Z M1161.13524,935.406026 C1160.18845,929.712299 1164.92241,927.351802 1175.3501,927.351802 L1208.50082,926.39204 C1226.50285,924.031542 1237.39746,917.883874 1241.65154,908.402976 L1247.81218,874.305464 L1247.81218,599.125962 C1247.81218,588.711241 1244.01204,580.657017 1236.91757,575.923053 L1212.28799,573.536616 L1179.13727,582.550603 L1161.13524,581.59084 C1158.76177,575.910083 1165.8692,570.696238 1182.44456,565.962274 C1221.75592,555.547552 1256.34628,542.279483 1285.69686,525.704123 C1303.68592,515.289402 1316.47411,509.595675 1322.15487,507.235178 L1336.36973,505.821474 C1341.1037,506.755297 1343.49013,516.236195 1343.49013,533.278466 L1343.49013,879.960281 C1343.49013,896.522671 1347.26433,908.377036 1354.38474,915.471498 C1362.8929,924.005603 1382.80149,928.259686 1413.57874,928.259686 C1424.47334,928.259686 1430.14113,930.646123 1431.11386,935.834029 C1431.11386,940.114051 1427.7936,941.528224 1422.09988,941.528224 L1169.65637,941.528224 C1163.97562,941.566665 1161.13524,939.180228 1161.13524,935.406026 L1161.13524,935.406026 Z M2278.86958,594.391998 C2255.66667,618.55467 2240.0381,646.958455 2231.50399,681.055967 L2231.50399,882.359688 C2231.50399,900.348752 2237.66463,913.13694 2250.45282,921.191164 L2279.36243,926.37907 L2309.6598,929.69933 C2316.7802,930.659092 2319.62058,932.085766 2319.62058,935.859968 L2318.20687,939.180228 L2310.15265,941.566665 L2056.76235,941.566665 C2049.18801,941.566665 2044.93393,939.180228 2044.93393,935.406026 L2052.02839,929.712299 L2094.66001,926.39204 C2111.2224,923.551661 2121.66306,917.883874 2127.34381,909.349769 L2134.46421,888.040445 L2134.46421,603.872896 L2129.70431,583.030484 L2121.67603,578.29652 C2119.28959,575.936023 2115.51539,574.522318 2109.82166,573.562556 C2102.7272,573.108614 2094.19309,574.522318 2085.20505,578.29652 L2061.06831,584.93704 L2047.30739,581.61678 C2044.9469,578.29652 2045.89369,575.936023 2049.20098,574.522318 L2069.56351,565.988213 C2115.96933,552.253232 2153.3871,538.05134 2179.45633,523.382535 L2211.64728,505.847413 L2225.86215,506.781236 L2231.5429,518.635601 L2231.5429,622.821723 C2267.08006,565.04142 2295.48384,529.530204 2314.91255,517.675839 C2326.74098,510.581377 2338.11546,504.887651 2346.64957,502.527153 L2363.21196,501.113449 C2373.62668,500.153687 2385.48104,503.473946 2398.72317,512.008052 C2416.73818,522.422773 2426.20611,538.05134 2427.13993,557.933989 C2428.09969,574.522318 2423.33979,587.323476 2412.92507,597.245346 C2403.45714,605.29957 2393.97624,607.686007 2385.46807,605.29957 C2377.41385,603.885866 2371.25321,600.565606 2366.99913,595.831642 L2353.73106,579.269252 C2343.31634,564.094627 2333.36853,559.360663 2321.5401,563.640686 C2307.75324,567.388948 2293.56432,577.829608 2278.86958,594.391998 L2278.86958,594.391998 Z M1289.01712,205.078566 C1271.482,205.078566 1257.28011,211.239204 1245.45168,223.080599 C1232.66349,234.921995 1226.50285,250.07068 1227.43668,267.605802 C1226.50285,284.181162 1232.65052,298.396024 1245.45168,310.237419 C1257.28011,322.078815 1271.49497,328.226483 1289.01712,328.226483 C1305.57951,328.226483 1320.27425,322.065845 1332.10268,310.237419 C1343.9311,298.396024 1350.57162,284.194131 1350.57162,267.605802 C1350.57162,250.07068 1343.9311,234.921995 1332.10268,223.080599 C1320.27425,211.239204 1305.57951,205.078566 1289.01712,205.078566 Z M1540.03395,583.017514 C1557.07622,560.294486 1578.41148,541.34566 1603.97489,526.196974 C1626.72386,512.928905 1649.44689,504.407769 1673.12968,500.127747 L1760.75341,494.939841 C1792.46448,496.353545 1821.85397,502.514184 1848.37714,514.342609 C1912.31808,542.759364 1952.56326,594.871879 1967.71195,670.641246 C1983.34051,747.370375 1970.09838,812.271078 1928.40059,864.837536 C1892.88937,909.349769 1845.9907,937.766523 1786.7967,950.07483 C1724.76231,963.809811 1666.98201,959.542759 1614.86949,938.246405 C1547.12841,910.763473 1505.94941,856.30343 1492.66837,776.733923 C1480.82697,701.444438 1496.45554,637.490527 1540.03395,583.017514 L1540.03395,583.017514 Z M1817.56098,561.72116 C1788.67731,529.530204 1752.20633,515.315342 1708.14804,519.089543 C1665.54236,523.369566 1632.85856,547.026417 1611.53626,592.018531 C1592.1335,632.756563 1585.01309,682.508581 1592.1335,741.222706 C1597.3214,799.48289 1615.81629,845.888709 1645.63378,881.412895 C1677.37079,918.830667 1713.37486,934.459233 1753.62004,927.364772 C1795.77177,919.310548 1826.57497,896.56158 1846.9375,858.689867 C1866.82015,819.858391 1873.91461,769.652431 1869.18064,705.71149 C1863.51286,641.770549 1846.95047,594.391998 1817.56098,561.72116 L1817.56098,561.72116 Z M1157.81498,582.563573 L1157.81498,587.297537 L1147.38729,580.657017 L1147.38729,583.017514 L1148.33408,587.297537 L1146.90741,587.297537 L1146.90741,578.28355 L1147.38729,578.28355 L1156.85522,585.403951 L1156.85522,578.28355 L1158.7488,578.28355 L1157.81498,582.563573 Z" id="形狀"></path>
            <path d="M1175.33713,579.243313 L1169.65637,579.243313 L1169.65637,582.563573 L1174.39034,582.563573 L1174.39034,583.017514 L1169.65637,583.017514 L1169.65637,586.337774 L1175.33713,586.337774 L1175.33713,587.310507 L1168.24267,587.310507 L1168.24267,578.28355 L1175.33713,578.28355 L1175.33713,579.243313 Z M1201.39339,578.28355 L1201.87327,578.28355 L1197.13931,587.297537 L1195.71263,587.297537 L1191.92546,580.177136 L1187.65841,587.297537 L1187.17853,587.297537 C1184.80506,583.017514 1182.92444,580.177136 1182.44456,578.28355 L1184.81803,578.28355 L1187.65841,585.403951 L1191.92546,578.28355 L1193.33916,578.28355 L1196.65942,585.403951 L1200.4466,578.28355 L1201.39339,578.28355 Z M1214.64849,583.017514 L1215.59528,587.310507 L1213.23478,587.310507 L1213.23478,583.990247 L1208.50082,578.28355 L1210.86132,578.28355 L1214.64849,583.017514 L1218.43566,578.28355 L1220.34222,578.28355 L1214.64849,583.017514 L1214.64849,583.017514 Z M1227.91656,580.190106 C1228.85038,579.256283 1231.23682,578.29652 1233.59731,578.29652 C1235.98375,578.29652 1237.39746,579.256283 1239.29104,580.190106 C1239.74498,580.669987 1240.70475,581.60381 1240.70475,583.030484 L1239.29104,586.350744 C1237.39746,587.310507 1235.97078,587.310507 1233.59731,587.310507 C1231.23682,587.310507 1228.86335,587.310507 1227.91656,586.350744 L1225.53012,583.030484 C1225.54309,581.60381 1226.50285,580.669987 1227.91656,580.190106 Z M1237.39746,580.190106 L1233.59731,579.256283 L1229.82311,580.190106 C1228.86335,580.669987 1227.92953,581.60381 1227.92953,583.030484 C1227.92953,583.990247 1228.86335,584.92407 1229.82311,585.416921 L1233.59731,587.310507 C1235.01102,587.310507 1236.91757,586.350744 1237.39746,585.416921 C1238.33128,584.93704 1239.29104,584.003217 1239.29104,583.030484 C1239.29104,581.60381 1238.33128,580.669987 1237.39746,580.190106 Z M1251.59935,579.243313 L1251.11947,582.563573 L1252.53317,582.563573 C1254.89367,582.563573 1256.33331,581.60381 1256.33331,580.669987 C1256.33331,580.190106 1255.85343,579.256283 1253.46699,579.256283 L1251.59935,579.256283 L1251.59935,579.243313 L1251.59935,579.243313 Z M1253.95985,578.28355 C1256.34628,578.28355 1258.21393,579.243313 1258.21393,580.669987 L1256.33331,582.563573 L1253.94688,583.017514 L1259.6406,587.297537 L1257.25417,587.297537 L1251.57341,583.017514 L1251.11947,583.017514 L1251.59935,587.297537 L1249.21291,587.297537 L1249.21291,578.28355 L1253.95985,578.28355 L1253.95985,578.28355 Z M1277.64264,578.28355 L1271.49497,582.563573 L1277.64264,587.310507 L1275.29511,587.310507 L1270.06829,583.017514 L1270.06829,582.563573 L1269.10853,583.017514 L1270.06829,587.310507 L1267.69483,587.310507 L1267.69483,578.28355 L1270.06829,578.28355 L1269.10853,582.563573 L1270.06829,582.563573 L1276.22893,578.28355 L1277.64264,578.28355 L1277.64264,578.28355 Z" id="形狀"></path>
        </g>
    </g>
</svg>