<svg xmlns="http://www.w3.org/2000/svg" width="2279.41" height="605.51" viewBox="0 0 2279.41 605.51">
  <title>資產 1</title>
  <g>
    <path d="M0,150.18H2279.41V0H0V150.18Z" fill="#54a857" fill-rule="evenodd"/>
    <path d="M256.1,496.85h54.36l.05-120.44H427.79V322H310.46V268.76H428.82V214.33H256.1ZM594.35,364.67c0-12.29,1.82-37.61-30.17-55.46C529.71,290,474.67,305,458.66,311.38V354c23.27-14.46,56.42-19,75.69-9.58,18.16,8.9,16.81,24.11,13.29,30.11-4.27-1.06-19.93-6.82-49.38-4-36.19,3.53-61.81,30.68-57.21,77.86,4,40.45,46.94,48.48,65.61,48.48,25.55,0,45.48-14.21,45.48-14.21,1,6.05,2.32,10.46,5.29,14.21h48c-7.46-8.13-10.87-25.56-10.87-32.46s-.22-87.47-.22-99.7ZM518,458.81c-18.12.8-29.88-11.7-29.88-28.8s16-28,30.55-28c18.86,0,28.42,7.07,28.42,7.07s.39,31.31,1.08,37C541.1,452.8,535.09,458.08,518,458.81Zm1243.82-94.14c0-12.29,1.89-37.61-30.09-55.46-34.52-19.25-89.54-4.23-105.53,2.17V354c23.28-14.46,56.42-19,75.67-9.58,18.13,8.9,16.84,24.11,13.32,30.11-4.31-1.06-20-6.82-49.41-4-36.25,3.53-61.86,30.68-57.19,77.86,4,40.45,46.91,48.48,65.59,48.48,25.58,0,45.44-14.21,45.44-14.21,1.14,6.05,2.36,10.46,5.4,14.21H1773c-7.47-8.13-10.87-25.56-10.87-32.46s-.25-87.47-.25-99.7Zm-76.27,94.14c-18.13.8-29.87-11.7-29.87-28.8s15.94-28,30.53-28c18.85,0,28.44,7.07,28.44,7.07s.33,31.31,1.09,37C1708.64,452.8,1702.66,458.08,1685.59,458.81ZM843,301.65c-41.09-1.09-59.18,22.48-59.18,22.48s-16-22.36-53.82-22.36a67.6,67.6,0,0,0-44.17,16.5V303.89H634.58l.1,192.94h51.11V365.19c2.55-15.84,35.77-22.9,45.9-12.81s10.57,13.37,10.57,26.71V496.85H794V364.68c0-6.78,23.22-22.59,41-13.85,15.88,7.77,16.58,15.45,16.58,26.63v119.4h49.56V370c0-12.79,2.72-66.86-58.11-68.35Zm99.16,195.2h49V301.92h-49Zm91.59,0h49V214.51h-49V496.85Zm172.11-84.22-45.49-111h-51.5l72.66,177.69-25.17,68.41,51.22.3,88.53-246.36H1246l-40.15,110.94Zm243-111.19-73.87-87h-52.21V496.85h49.07V293.19l77,91.08,76.47-90.71V496.85h49.35V214.48h-52.46Zm399,23.27V301.77h-49.14V496.83h49V372.14s30.88-41.55,68.75-12.79V307.11c-18.13-7.46-41.57-12.79-68.65,17.6Zm205.14,20.78v-43.8h-44.22V228.22l-46.51,19.18v54.07H1933.1v44h29.34V432.9c0,25.09,13.24,50.46,36.28,58.64,19.8,7,31.33,7.61,53.85.77V447.63c-9.73,2.55-34.2,6.75-40.79-11.69-4.2-11.83-2.87-15.85-2.87-29.7V345.49ZM967,213.17A31.44,31.44,0,1,0,965.7,276H967a31.44,31.44,0,0,0,0-62.87ZM2279.41,559.72v45.79H0V559.72Z" fill="#37a8dc" fill-rule="evenodd"/>
  </g>
</svg>
