<?xml version="1.0" encoding="UTF-8"?>
<svg width="481px" height="72px" viewBox="0 0 481 72" version="1.1" xmlns="http://www.w3.org/2000/svg" xmlns:xlink="http://www.w3.org/1999/xlink">
    <title>形狀</title>
    <g id="Page-1" stroke="none" stroke-width="1" fill="none" fill-rule="evenodd">
        <path d="M264.0728,33.4908779 C264.0728,33.4908779 259.402785,30.6031968 256.515104,29.4858679 C256.515104,29.4858679 247.576473,25.3430639 245.803125,23.3720118 C245.803125,23.3720118 242.319335,20.0889221 244.359284,16.2756253 C244.359284,16.2756253 245.213007,13.7803572 248.894501,13.7803572 C248.894501,13.7803572 253.687333,14.043963 253.687333,17.9830716 L253.687333,23.539761 L270.863644,23.539761 L270.833689,15.3560007 C270.833689,15.3560007 272.154713,1.95404482 250.601948,1.36392741 C250.601948,1.36392741 233.650301,0.24959402 228.788572,9.37993856 C228.788572,9.37993856 226.880426,11.4168921 226.880426,18.5102831 L226.880426,23.6356176 C226.880426,23.6356176 226.685717,29.5487738 229.705201,33.3590751 C229.705201,33.3590751 231.412647,35.8573386 235.618357,38.6132169 C235.618357,38.6132169 244.158584,43.2113399 249.283919,45.8444019 C249.283919,45.8444019 254.457182,48.7979845 253.777199,53.4979551 C253.777199,53.4979551 253.35483,58.3237376 248.358303,58.1260333 C248.358303,58.1260333 243.790135,57.922338 243.790135,53.1894166 L243.790135,47.6357227 L225.487509,47.6357227 L225.487509,55.7026577 C225.487509,55.7026577 224.975275,71.129585 248.493102,71.129585 C248.493102,71.129585 270.965492,71.5849041 272.013924,55.2982626 L272.013924,48.7290875 C272.010928,48.7290875 272.807736,38.7480153 264.0728,33.4908779 L264.0728,33.4908779 Z M176.136319,3.28405564 L170.384921,39.3261506 L169.039933,39.3261506 L163.546149,3.60757179 L134.85506,3.60757179 L133.417211,68.8769541 L150.404804,68.8769541 L150.608499,19.6995045 L151.944501,19.6995045 L160.949034,68.8679675 L178.820305,68.8679675 L187.714004,19.7174776 L188.897234,19.7174776 L189.30762,68.8769541 L206.385079,68.8769541 L204.54583,3.28405564 L176.136319,3.28405564 L176.136319,3.28405564 Z M75.0135598,3.55664795 L63.7114633,68.8020661 L81.9991121,68.8020661 L88.694099,18.2137266 L90.1978499,18.2137266 L96.8898413,68.8020661 L115.174495,68.8020661 L103.875394,3.55664795 L75.0135598,3.55664795 L75.0135598,3.55664795 Z M458.745645,32.592222 L458.745645,42.2168273 L463.436629,42.2168273 L463.436629,52.5483753 C463.436629,57.5988218 459.120085,57.6916829 459.120085,57.6916829 C453.871935,57.6916829 454.069639,52.8928601 454.069639,52.8928601 L454.069639,17.1563081 C454.069639,13.4748142 458.727672,13.2771099 458.727672,13.2771099 C463.196988,13.2771099 463.226943,17.668542 463.226943,17.668542 L463.226943,23.1024151 L480.445191,23.1024151 C481.008349,12.4952792 478.893512,9.9281187 478.893512,9.9281187 C474.621901,0.336464096 458.464066,0.860680072 458.464066,0.860680072 C433.634202,0.860680072 436.390081,19.9121864 436.390081,19.9121864 L436.390081,54.465508 C436.923283,72.333784 461.390689,70.518499 461.804071,70.5035214 C472.686795,69.2993224 475.97288,65.839497 475.97288,65.839497 C478.998355,63.5928571 479.77719,60.4805119 479.77719,60.4805119 C480.642896,58.6682224 480.858573,52.8928601 480.858573,52.8928601 L480.858573,32.592222 L458.745645,32.592222 L458.745645,32.592222 Z M401.672005,43.2113399 L400.923125,43.2113399 L383.450258,3.30202876 L362.544525,3.30202876 L362.544525,68.8829451 L379.559078,68.8829451 L378.540601,28.979625 L379.301463,28.979625 L397.40339,68.8829451 L417.674072,68.8829451 L417.674072,3.29603772 L400.443842,3.29603772 L401.672005,43.2113399 L401.672005,43.2113399 Z M321.011642,52.5423843 C321.011642,52.5423843 321.257275,57.9253335 316.266739,57.9253335 C316.266739,57.9253335 311.018588,58.2069123 311.018588,52.6771827 L310.964668,3.34097052 L292.30258,3.34097052 L292.30258,52.2847696 C292.30258,52.2847696 290.388442,70.8092939 316.530344,70.8092939 C316.530344,70.8092939 339.248367,71.0786612 339.248367,53.1354972 L339.248367,3.34396604 L321.011642,3.34396604 L321.011642,52.5423843 L321.011642,52.5423843 Z M39.4357703,33.4908779 C39.4357703,33.4908779 34.7717459,30.6031968 31.8810692,29.4888634 C31.8810692,29.4888634 22.948429,25.349055 21.1750812,23.3750074 C21.1750812,23.3750074 17.6912916,20.0859266 19.7342362,16.2816163 C19.7342362,16.2816163 20.5849638,13.7863483 24.2634622,13.7863483 C24.2634622,13.7863483 29.0592895,14.0469585 29.0592895,17.9860671 L29.0592895,23.5427565 L46.2415915,23.5427565 L46.2086407,15.3560007 C46.2086407,15.3560007 47.5206784,1.95404482 25.9768996,1.36692293 C25.9768996,1.36692293 24.3533278,1.26207973 21.9718895,1.38190053 C21.9718895,1.38190053 8.92040948,2.08285218 4.25338953,9.24214465 C4.22642986,9.29606401 4.1874881,9.33500577 4.16052842,9.38293408 C4.16052842,9.38293408 2.25537779,11.4168921 2.25537779,18.5132786 L2.25537779,23.6386131 C2.25537779,23.6386131 2.05767347,29.5517693 5.08015302,33.3620706 C5.08015302,33.3620706 6.78759934,35.8603342 10.9933092,38.6162124 C10.9933092,38.6162124 19.5305408,43.2143354 24.6558753,45.8473974 C24.6558753,45.8473974 29.8351292,48.7949889 29.1491551,53.5009506 C29.1491551,53.5009506 28.7267868,58.3267331 23.7332552,58.1290288 C23.7332552,58.1290288 19.1650874,57.9253335 19.1650874,53.1924121 L19.1650874,47.6357227 L0.859465529,47.6357227 L0.859465529,55.7086488 C0.859465529,55.7086488 0.347231633,71.1355761 23.8650581,71.1355761 C23.8650581,71.1355761 46.3314571,71.5908951 47.3888756,55.3042536 L47.3888756,48.7410696 C47.3888756,48.7350785 48.1737018,38.7480153 39.4357703,33.4908779 L39.4357703,33.4908779 Z" id="形狀" fill="#000000" fill-rule="nonzero"></path>
    </g>
</svg>