<?xml version="1.0" encoding="UTF-8"?>
<svg width="2362px" height="721px" viewBox="0 0 2362 721" version="1.1" xmlns="http://www.w3.org/2000/svg" xmlns:xlink="http://www.w3.org/1999/xlink">
    <title>sandisk</title>
    <g id="Page-1" stroke="none" stroke-width="1" fill="none" fill-rule="evenodd">
        <g id="sandisk" fill-rule="nonzero">
            <path d="M2304.80122,28.501795 C2304.80122,12.4192866 2317.8488,0.564921455 2333.24391,0.564921455 C2348.5223,0.564921455 2361.56988,12.4322563 2361.56988,28.501795 C2361.56988,44.7269709 2348.5223,56.5943058 2333.24391,56.5943058 C2317.8488,56.581336 2304.80122,44.7269709 2304.80122,28.501795 Z M2333.25688,51.9122206 C2345.95428,51.9122206 2355.95397,41.9773807 2355.95397,28.4888253 C2355.95397,15.2337255 2345.95428,5.22106705 2333.25688,5.22106705 C2320.44276,5.22106705 2310.4301,15.2337255 2310.4301,28.4888253 C2310.4301,41.9903505 2320.42979,51.9122206 2333.25688,51.9122206 Z M2327.3297,44.7269709 L2322.4401,44.7269709 L2322.4401,12.4192866 L2334.74841,12.4192866 C2342.37463,12.4192866 2346.14883,15.2337255 2346.14883,21.6018801 C2346.14883,27.3863952 2342.53027,29.9025296 2337.78333,30.486169 L2346.9789,44.7140011 L2341.47972,44.7140011 L2332.97155,30.706655 L2327.31673,30.706655 L2327.31673,44.7269709 L2327.3297,44.7269709 L2327.3297,44.7269709 Z M2333.20501,26.5693 C2337.32939,26.5693 2341.05171,26.2839652 2341.05171,21.3165453 C2341.05171,17.3088879 2337.40721,16.5696113 2334.00913,16.5696113 L2327.31673,16.5696113 L2327.31673,26.5693 L2333.20501,26.5693 Z" id="形狀" fill="#000000"></path>
            <polygon id="路徑" fill="#FFFFFF" points="1866.82523 15.648758 2289.96381 15.648758 2269.79582 87.1251323 2354.17712 87.1510718 2258.62886 409.670215 1830.6785 409.95555 1849.76999 351.085787 1755.84295 351.046878"></polygon>
            <path d="M1849.76999,351.085787 L1755.84295,351.046878 L1866.82523,15.648758 L2283.32329,15.648758 L2186.32242,338.997966 L2123.14669,338.972027 L2194.28585,256.977173 L2006.60039,325.275955 L2233.84364,59.7978377 L1930.58459,265.083276 L2027.37795,117.759717 L2098.1799,18.6707132 L1855.85281,216.537446 L1953.20386,20.9923011 L1828.13642,152.207412 L1764.403,344.8603 L2192.2496,344.8603 L2269.79582,87.1251323 L2354.17712,87.1510718 L2258.62886,409.670215 L1830.6785,409.95555 L1849.76999,351.085787 L1849.76999,351.085787 Z M118.462014,683.254436 L89.6431966,683.254436 L105.103156,605.889788 L104.804852,605.591484 C90.6937475,636.69298 78.7096848,660.051526 66.725622,683.254436 L48.5420117,683.254436 C44.5474024,657.455741 41.2087727,631.559738 38.5293532,605.591484 L38.2310486,605.591484 L25.1964349,683.254436 L0.761397829,683.254436 L20.6310776,577.08394 L59.6052211,577.08394 C62.4974787,597.861504 65.2211293,618.781734 67.0368964,645.629148 L67.335201,645.629148 C78.7096848,618.781734 89.4875594,597.848534 100.083857,577.08394 L138.305754,577.08394 L118.462014,683.254436 L118.462014,683.254436 Z M139.901036,649.8962 C139.901036,626.239349 160.821266,605.591484 186.306854,605.591484 C212.99863,605.591484 222.090436,626.239349 222.090436,641.07676 C222.090436,662.022931 206.319201,685.083173 175.075038,685.083173 C151.106912,685.083173 139.901036,664.733611 139.901036,649.8962 L139.901036,649.8962 Z M193.271618,638.366079 C193.881197,628.029177 191.611488,619.235676 185.852912,619.235676 C174.167154,619.235676 168.706883,638.962689 168.706883,651.102389 C168.706883,662.904875 170.833925,671.41304 177.500384,671.41304 C179.329121,671.42601 191.611488,671.879952 193.271618,638.366079 L193.271618,638.366079 Z M265.642906,623.502729 L266.849094,623.801033 L268.677831,620.908776 C270.506568,617.588516 275.811202,605.578514 285.81089,605.578514 C291.569466,605.578514 295.071303,608.01683 298.248895,611.350059 L285.512586,633.489448 C283.995123,632.879869 282.477661,631.971985 278.080911,631.971985 C271.855423,631.971985 263.671502,635.318185 260.792214,650.791114 L254.735334,683.241466 L227.421009,683.241466 L241.519143,607.394281 L268.820498,607.394281 L265.642906,623.502729 L265.642906,623.502729 Z M358.337816,672.943473 C347.572911,679.000353 333.007865,685.083173 317.84621,685.083173 C297.379921,685.083173 291.011766,665.200523 291.310071,655.045197 C292.386561,619.404283 320.284526,605.604453 339.687294,605.604453 C354.550644,605.604453 366.833012,611.077694 366.833012,625.64274 C366.833012,642.010583 342.566582,651.426633 320.427193,650.817054 C320.128888,654.137313 318.90973,667.184897 333.163502,667.184897 C340.45251,667.184897 345.757144,664.149972 352.57924,660.829712 L358.337816,672.943473 L358.337816,672.943473 Z M321.633381,638.067775 C336.795036,638.677354 344.537986,634.423271 345.134595,626.239349 C345.4329,621.829629 342.410944,618.639067 337.560252,618.639067 C328.611115,619.248646 323.90309,627.756812 321.633381,638.067775 L321.633381,638.067775 Z M537.035236,683.254436 L508.203449,683.254436 L523.676378,605.889788 L523.378074,605.591484 C509.26697,636.69298 497.295877,660.051526 485.298844,683.254436 L467.102264,683.254436 C463.114056,657.454833 459.775448,631.558993 457.089606,605.591484 L456.791301,605.591484 L443.756687,683.254436 L419.33462,683.254436 L439.2043,577.08394 L478.178443,577.08394 C481.057731,597.861504 483.794351,618.781734 485.610118,645.629148 L485.921393,645.629148 C497.295877,618.781734 508.060782,597.848534 518.683019,577.08394 L556.904916,577.08394 L537.035236,683.254436 L537.035236,683.254436 Z M625.190728,672.943473 C614.412854,679.000353 599.860777,685.083173 584.699122,685.083173 C564.219863,685.083173 557.851709,665.200523 558.162983,655.045197 C559.226504,619.404283 587.124468,605.604453 606.540206,605.604453 C621.403557,605.604453 633.685924,611.077694 633.685924,625.64274 C633.685924,642.010583 609.419494,651.426633 587.280105,650.817054 C586.981801,654.137313 585.762643,667.184897 600.016415,667.184897 C607.292453,667.184897 612.597086,664.149972 619.419183,660.829712 L625.190728,672.943473 L625.190728,672.943473 Z M588.499263,638.067775 C603.660918,638.677354 611.403868,634.423271 612.000477,626.239349 C612.311752,621.829629 609.276827,618.639067 604.426135,618.639067 C595.464027,619.248646 590.768972,627.756812 588.499263,638.067775 L588.499263,638.067775 Z M673.593891,619.546951 L673.892195,619.845255 C680.869929,612.270912 691.180892,605.578514 703.618896,605.578514 C707.329504,605.636003 710.862506,607.177265 713.428721,609.858021 C715.994936,612.538778 717.380552,616.135673 717.276059,619.845255 C725.161676,611.363029 737.59968,605.734151 746.704455,605.578514 C759.14246,605.306149 764.758368,611.661333 764.291457,621.661022 C764.291457,625.305526 763.694847,629.53367 762.631327,634.552969 L753.682189,683.241466 L726.367864,683.241466 L735.317002,635.460852 C735.615306,634.241694 735.770944,632.879869 735.770944,631.660711 C735.770944,625.603831 732.891656,624.384673 730.310673,624.384673 C723.021665,624.384673 717.107452,634.695636 714.682106,647.743219 L707.86001,683.228496 L680.558654,683.228496 L689.507792,635.447882 C689.819067,634.228724 689.961734,632.866899 689.961734,631.647741 C689.961734,625.590861 687.082446,624.371703 684.514433,624.371703 C677.225425,624.371703 671.311212,634.682666 668.885866,647.73025 L662.06377,683.215526 L634.762415,683.215526 L649.029156,607.368341 L676.032207,607.368341 L673.593891,619.546951 L673.593891,619.546951 Z M772.086285,649.8962 C772.086285,626.239349 793.006516,605.591484 818.492104,605.591484 C845.18388,605.591484 854.288655,626.239349 854.288655,641.07676 C854.288655,662.022931 838.504451,685.083173 807.273257,685.083173 C783.305132,685.083173 772.086285,664.733611 772.086285,649.8962 L772.086285,649.8962 Z M825.469838,638.366079 C826.079416,628.029177 823.796738,619.235676 818.038162,619.235676 C806.365374,619.235676 800.905103,638.962689 800.905103,651.102389 C800.905103,662.904875 803.019175,671.41304 809.698603,671.41304 C811.51437,671.42601 823.796738,671.879952 825.469838,638.366079 Z M897.828156,623.502729 L899.034344,623.801033 L900.850111,620.908776 C902.678848,617.588516 907.983482,605.578514 917.99614,605.578514 C923.754716,605.578514 927.243583,608.01683 930.421175,611.350059 L917.684866,633.489448 C916.180373,632.879869 914.662911,631.971985 910.26616,631.971985 C904.040673,631.971985 895.856752,635.318185 892.964494,650.791114 L886.907614,683.241466 L859.606259,683.241466 L873.704393,607.394281 L901.005748,607.394281 L897.828156,623.502729 L897.828156,623.502729 Z M959.123265,605.889788 C960.342423,620.156529 961.704248,634.864243 961.846915,655.330532 L962.14522,655.330532 C968.893621,638.453908 976.539399,621.950112 985.049825,605.889788 L1005.67175,609.391625 C984.141941,646.550001 963.208741,683.708377 945.453132,720.879724 L923.767686,712.060283 L941.964266,679.000353 L931.043724,609.235987 L959.123265,605.889788 L959.123265,605.889788 Z M995.25703,673.254747 C995.25703,664.292639 1002.23476,658.534064 1008.60292,658.534064 C1017.08514,658.534064 1021.19656,665.36913 1021.19656,669.610243 C1021.19656,680.375148 1013.60925,685.083173 1006.94279,685.083173 C999.511112,685.083173 995.25703,678.702048 995.25703,673.254747 L995.25703,673.254747 Z M1206.54747,683.254436 L1177.74162,683.254436 L1193.21455,605.889788 L1192.91625,605.591484 C1178.80514,636.69298 1166.82108,660.051526 1154.83702,683.254436 L1136.64044,683.254436 C1132.65077,657.455543 1129.31647,631.559556 1126.64075,605.591484 L1126.34244,605.591484 L1113.29486,683.254436 L1088.87279,683.254436 L1108.74247,577.08394 L1147.71662,577.08394 C1150.60887,597.861504 1153.33252,618.781734 1155.14829,645.629148 L1155.4466,645.629148 C1166.82108,618.781734 1177.59895,597.848534 1188.20822,577.08394 L1226.43012,577.08394 L1206.54747,683.254436 L1206.54747,683.254436 Z M1228.01243,649.8962 C1228.01243,626.239349 1248.93266,605.591484 1274.41825,605.591484 C1301.09706,605.591484 1310.2148,626.239349 1310.2148,641.07676 C1310.2148,662.022931 1294.4306,685.083173 1263.17346,685.083173 C1239.20534,685.083173 1228.01243,664.733611 1228.01243,649.8962 L1228.01243,649.8962 Z M1281.38301,638.366079 C1281.99259,628.029177 1279.70991,619.235676 1273.96431,619.235676 C1262.29152,619.235676 1256.81828,638.962689 1256.81828,651.102389 C1256.81828,662.904875 1258.94532,671.41304 1265.61178,671.41304 C1267.42755,671.42601 1279.70991,671.879952 1281.38301,638.366079 L1281.38301,638.366079 Z M1353.72836,623.502729 L1354.94752,623.801033 L1356.77626,620.908776 C1358.60499,617.588516 1363.9226,605.578514 1373.92229,605.578514 C1379.66789,605.578514 1383.16973,608.01683 1386.36029,611.350059 L1373.62398,633.489448 C1372.10652,632.879869 1370.58906,631.971985 1366.17934,631.971985 C1359.96682,631.971985 1351.79587,635.318185 1348.90361,650.791114 L1342.82079,683.241466 L1315.5324,683.241466 L1329.61757,607.394281 L1356.91892,607.394281 L1353.72836,623.502729 L1353.72836,623.502729 Z M1446.44921,672.943473 C1435.68431,679.000353 1421.11926,685.083173 1405.94463,685.083173 C1385.47835,685.083173 1379.12316,665.200523 1379.42147,655.045197 C1380.45905,619.404283 1408.36998,605.604453 1427.79869,605.604453 C1442.64907,605.604453 1454.93144,611.077694 1454.93144,625.64274 C1454.93144,642.010583 1430.66501,651.426633 1408.52562,650.817054 C1408.22731,654.137313 1407.00816,667.184897 1421.26193,667.184897 C1428.53797,667.184897 1433.85557,664.149972 1440.6647,660.829712 L1446.44921,672.943473 L1446.44921,672.943473 Z M1409.73181,638.067775 C1424.90643,638.677354 1432.63641,634.423271 1433.23302,626.239349 C1433.53132,621.829629 1430.4964,618.639067 1425.65868,618.639067 C1416.73548,619.248646 1412.01448,627.756812 1409.73181,638.067775 Z M1535.96653,683.254436 L1507.44601,683.254436 L1527.30272,577.08394 L1566.58814,577.08394 C1590.40063,577.08394 1599.94638,591.648986 1599.94638,605.306149 C1599.94638,628.353421 1580.54361,646.238727 1549.13084,644.267322 L1552.47704,626.537654 L1555.05802,626.537654 C1559.0138,626.537654 1571.11459,623.035817 1571.11459,608.328104 C1571.11459,601.817282 1566.73081,595.124883 1559.92168,595.124883 L1552.47704,595.124883 L1535.96653,683.254436 L1535.96653,683.254436 Z M1596.17218,649.8962 C1596.17218,626.239349 1617.09241,605.591484 1642.57799,605.591484 C1669.28274,605.591484 1678.37455,626.239349 1678.37455,641.07676 C1678.37455,662.022931 1662.61628,685.083173 1631.35915,685.083173 C1607.40399,685.083173 1596.17218,664.733611 1596.17218,649.8962 L1596.17218,649.8962 Z M1649.58167,638.366079 C1650.19125,628.029177 1647.90857,619.235676 1642.13702,619.235676 C1630.46423,619.235676 1625.01693,638.962689 1625.01693,651.102389 C1625.01693,662.904875 1627.14397,671.41304 1633.81043,671.41304 C1635.61323,671.42601 1647.90857,671.879952 1649.58167,638.366079 Z M1735.2729,624.410612 C1731.31713,621.972297 1728.30814,621.064413 1725.27322,621.064413 C1721.01913,621.064413 1718.28251,623.502729 1718.28251,627.445537 C1718.28251,633.191143 1723.30181,637.302559 1727.71153,643.502106 C1731.3301,648.664073 1736.80334,654.422648 1736.80334,662.321235 C1736.80334,673.540082 1727.10195,685.070203 1704.35299,685.070203 C1695.0796,685.070203 1685.22258,683.708377 1678.25782,679.596962 L1684.613,663.812758 C1688.56878,666.251074 1694.61269,669.130362 1699.78763,669.130362 C1701.30509,669.130362 1708.87943,668.974725 1708.87943,662.009961 C1708.87943,656.990662 1705.10523,652.892216 1699.78763,646.537031 C1694.62566,640.324514 1691.3054,634.708606 1691.3054,628.016207 C1691.3054,616.940028 1701.61636,605.578514 1720.11125,605.578514 C1727.71153,605.578514 1737.11461,607.705555 1743.4698,612.270912 L1735.2729,624.410612 L1735.2729,624.410612 Z M1797.03492,624.410612 C1793.07915,621.972297 1790.07016,621.064413 1787.03524,621.064413 C1782.78115,621.064413 1780.07047,623.502729 1780.07047,627.445537 C1780.07047,633.191143 1785.06383,637.302559 1789.47355,643.502106 C1793.09212,648.664073 1798.56536,654.422648 1798.56536,662.321235 C1798.56536,673.540082 1788.86397,685.070203 1766.11501,685.070203 C1756.84162,685.070203 1746.9846,683.708377 1740.01984,679.596962 L1746.37502,663.812758 C1750.3308,666.251074 1756.37471,669.130362 1761.54965,669.130362 C1763.06711,669.130362 1770.64145,668.974725 1770.64145,662.009961 C1770.64145,656.990662 1766.86725,652.892216 1761.54965,646.537031 C1756.38768,640.324514 1753.06742,634.708606 1753.06742,628.016207 C1753.06742,616.940028 1763.37839,605.578514 1781.87327,605.578514 C1789.47355,605.578514 1798.87663,607.705555 1805.23182,612.270912 L1797.03492,624.410612 L1797.03492,624.410612 Z M1849.5495,607.42022 L1835.28276,683.267405 L1807.98141,683.267405 L1822.24815,607.42022 L1849.5495,607.42022 Z M1824.67349,588.16012 C1824.67349,577.693519 1832.54614,571.01409 1840.14642,571.01409 C1849.84781,571.01409 1854.38723,578.912677 1854.38723,583.906037 C1854.38723,596.188404 1845.59372,601.661645 1838.01938,601.661645 C1829.38152,601.661645 1824.67349,594.372637 1824.67349,588.16012 L1824.67349,588.16012 Z M1873.6603,571.779306 L1900.81898,571.779306 L1892.33676,615.928386 C1899.30152,610.455145 1907.93938,605.591484 1916.88852,605.591484 C1930.84399,605.591484 1938.59991,616.226691 1938.59991,635.940733 C1938.59991,667.171927 1916.00658,685.083953 1900.22237,685.083953 C1893.0489,685.138127 1886.1582,682.289221 1881.11791,677.184586 L1880.05439,683.267405 L1852.75303,683.267405 L1873.6603,571.779306 L1873.6603,571.779306 Z M1883.51732,663.553363 C1885.30098,667.646815 1889.36342,670.273351 1893.82828,670.219822 C1901.11729,670.219822 1909.76812,655.654776 1909.76812,637.159891 C1909.76812,627.160203 1907.79672,621.985266 1902.03814,621.985266 C1895.34574,621.985266 1885.33308,633.204113 1883.51732,663.553363 L1883.51732,663.553363 Z M1987.14574,607.42022 L1972.879,683.267405 L1945.57764,683.267405 L1959.84438,607.42022 L1987.14574,607.42022 Z M1962.26973,588.16012 C1962.26973,577.693519 1970.14238,571.01409 1977.71672,571.01409 C1987.44404,571.01409 1991.98346,578.912677 1991.98346,583.906037 C1991.98346,596.188404 1983.18996,601.661645 1975.61562,601.661645 C1966.95181,601.661645 1962.26973,594.372637 1962.26973,588.16012 Z M1989.72672,683.254436 L2010.64695,571.779306 L2037.96128,571.779306 L2017.01511,683.254436 L1989.72672,683.254436 L1989.72672,683.254436 Z M2076.94839,607.42022 L2062.68165,683.267405 L2035.38029,683.267405 L2049.64704,607.42022 L2076.94839,607.42022 Z M2052.07238,588.16012 C2052.07238,577.693519 2059.94503,571.01409 2067.54531,571.01409 C2077.2467,571.01409 2081.78611,578.912677 2081.78611,583.906037 C2081.78611,596.188404 2072.99261,601.661645 2065.41827,601.661645 C2056.75447,601.661645 2052.07238,594.372637 2052.07238,588.16012 L2052.07238,588.16012 Z M2131.2528,680.219511 C2123.49688,683.56571 2114.40507,685.083173 2106.37679,685.083173 C2089.6847,685.083173 2084.5357,677.028949 2087.24638,660.816742 L2095.30061,621.375687 L2085.72892,621.375687 L2088.46554,607.42022 L2098.01129,607.42022 L2101.35749,589.23661 L2129.5797,584.671253 L2125.32561,607.42022 L2143.23686,607.42022 L2140.50024,621.375687 L2122.58899,621.375687 L2116.68775,650.350142 C2113.34155,665.070825 2118.97043,668.845027 2122.43336,668.845027 C2125.46828,668.845027 2127.59532,667.937143 2130.48758,666.717985 L2131.2528,680.219511 Z M2183.5858,607.42022 L2169.345,683.267405 L2142.04364,683.267405 L2156.31038,607.42022 L2183.5858,607.42022 Z M2158.73573,588.16012 C2158.73573,577.693519 2166.60838,571.01409 2174.18272,571.01409 C2183.8841,571.01409 2188.44946,578.912677 2188.44946,583.906037 C2188.44946,596.188404 2179.65596,601.661645 2172.05568,601.661645 C2163.43078,601.661645 2158.73573,594.372637 2158.73573,588.16012 Z M2255.36048,672.943473 C2244.59557,679.000353 2230.03053,685.083173 2214.8559,685.083173 C2194.38961,685.083173 2188.00849,665.200523 2188.33273,655.045197 C2189.37031,619.404283 2217.28125,605.604453 2236.69698,605.604453 C2251.56034,605.604453 2263.85567,611.077694 2263.85567,625.64274 C2263.85567,642.010583 2239.58924,651.426633 2217.44985,650.817054 C2217.15155,654.137313 2215.93239,667.184897 2230.18616,667.184897 C2237.4622,667.184897 2242.7798,664.149972 2249.58893,660.829712 L2255.36048,672.943473 L2255.36048,672.943473 Z M2218.65604,638.067775 C2233.83067,638.677354 2241.56065,634.423271 2242.15726,626.239349 C2242.45556,621.829629 2239.42064,618.639067 2234.58291,618.639067 C2225.62081,619.248646 2220.92575,627.756812 2218.65604,638.067775 Z M2316.48698,624.410612 C2312.5312,621.972297 2309.52221,621.064413 2306.48729,621.064413 C2302.23321,621.064413 2299.52253,623.502729 2299.52253,627.445537 C2299.52253,633.191143 2304.51589,637.302559 2308.92561,643.502106 C2312.54417,648.664073 2318.01741,654.422648 2318.01741,662.321235 C2318.01741,673.540082 2308.31603,685.070203 2285.56706,685.070203 C2276.29368,685.070203 2266.43666,683.708377 2259.47189,679.596962 L2265.82708,663.812758 C2269.78286,666.251074 2275.8527,669.130362 2281.0017,669.130362 C2282.51916,669.130362 2290.09351,668.974725 2290.09351,662.009961 C2290.09351,656.990662 2286.31931,652.892216 2281.0017,646.537031 C2275.86567,640.324514 2272.51948,634.708606 2272.51948,628.016207 C2272.51948,616.940028 2282.83044,605.578514 2301.32532,605.578514 C2308.92561,605.578514 2318.32868,607.705555 2324.68387,612.270912 L2316.48698,624.410612 L2316.48698,624.410612 Z M2332.28415,673.254747 C2332.28415,664.292639 2339.27486,658.534064 2345.63004,658.534064 C2354.11227,658.534064 2358.22368,665.36913 2358.22368,669.610243 C2358.22368,680.375148 2350.64934,685.083173 2343.95694,685.083173 C2336.53823,685.083173 2332.28415,678.702048 2332.28415,673.254747 L2332.28415,673.254747 Z M1141.14095,16.9327647 L1145.38206,17.2051298 L1149.36378,17.9962855 L1153.34549,19.0727759 L1157.31424,20.395692 L1161.02359,22.2633381 L1164.47355,24.3774098 L1167.65114,26.7638465 L1171.89226,30.7455643 L1174.53809,33.9231567 L1176.92453,37.3731142 L1178.7792,40.8230717 L1180.37448,44.5324244 L1181.6974,48.5141422 L1182.48856,52.4958601 L1183.02032,58.8510448 L1182.76092,63.364523 L1181.9568,67.6056361 L1180.89327,71.587354 L1179.57036,75.2967067 L1177.71568,79.0060595 L1175.57567,82.4560169 L1173.17626,85.5817303 L1169.19455,90.0822387 L1166.00398,92.4686754 L1162.567,94.8551122 L1159.11704,96.7097885 L1155.40769,98.2920999 L1151.42597,99.6150159 L1147.44425,100.406172 L1141.08907,100.678537 L1136.60153,100.678537 L1132.61981,99.8744112 L1128.63809,98.8108905 L1124.65637,97.4750047 L1120.94702,95.8926934 L1117.49706,93.7656519 L1114.31947,91.3792152 L1110.07836,87.1381021 L1107.43253,83.9475399 L1105.04609,80.7699475 L1103.19141,77.0605947 L1101.59613,73.351242 L1100.26025,69.3695242 L1099.46909,65.3878063 L1099.2486,58.786196 L1099.2486,54.5450829 L1100.03976,50.5763348 L1101.10328,46.594617 L1102.43917,42.6128992 L1104.29384,38.9035465 L1106.42088,35.4665588 L1108.82029,32.2889664 L1112.80201,28.0478532 L1115.9796,25.4020212 L1119.42956,23.0155845 L1122.87952,21.1609081 L1126.58887,19.565627 L1130.57059,18.242711 L1134.5523,17.4385856 L1141.14095,16.9327647 L1141.14095,16.9327647 Z M438.166719,153.335782 C438.166719,134.957625 412.616282,127.889103 401.034282,127.889103 C375.146631,127.889103 338.156862,136.33242 348.364066,149.769097 C352.449542,155.423914 357.896844,170.274295 357.896844,183.698002 C357.896844,202.076158 340.867542,214.799498 325.200066,214.799498 C306.134512,214.799498 289.779639,204.19023 289.779639,181.57096 C289.779639,127.863164 361.515408,113.75206 403.070535,113.75206 C432.356264,113.75206 463.639337,118.69354 490.201415,132.843554 C509.26697,142.739484 515.401668,154.049119 515.401668,175.955052 L515.401668,363.977734 C515.401668,372.667476 517.658408,395.442383 539.979373,398.840462 L567.69576,398.866401 L568.227521,398.607006 L569.031646,398.607006 L569.304011,398.334641 L569.835772,398.062276 L570.367532,397.024694 L570.367532,395.961174 L570.639897,395.157048 L570.691776,259.207973 L570.743655,138.355704 L522.5091,138.329764 L522.5091,128.524622 L649.197763,128.576501 L649.184793,161.18249 L664.82633,139.989894 L676.486148,129.393596 L688.950092,121.715495 L702.192222,116.683226 L715.447322,114.29679 L728.689452,114.037394 L741.931582,115.892071 L760.750711,122.53259 L772.138164,129.16014 L782.475067,137.642367 L791.748449,147.460479 L799.167154,158.588537 L804.731183,171.052481 L808.427566,184.566976 L809.750482,198.613231 L809.724543,259.311731 L809.672664,395.533171 L810.736185,397.634273 L811.267945,398.191973 L812.331466,398.723734 L812.863226,398.723734 L813.654382,398.983129 L824.25068,398.983129 L842.019258,399.009068 L859.502501,397.154392 L871.69408,393.43207 L884.158024,388.140405 L896.349603,381.25346 L908.541182,373.043599 L920.21397,363.523792 L931.614393,352.655129 L947.528295,334.38073 L957.074042,321.1386 L965.828633,306.832949 L973.260308,291.982569 L979.628463,276.354002 L984.673701,260.45307 L984.946067,259.389549 L988.123659,244.020378 L989.991305,227.055926 L989.213119,199.22281 L986.826682,180.403681 L982.326174,161.584552 L975.970989,143.297184 L967.761128,125.528606 L957.437195,108.823549 L945.258586,92.9226172 L922.9895,71.6911121 L905.765652,59.4865633 L886.155367,49.1496607 L864.158646,40.9268298 L840.307249,35.0774658 L814.069414,31.8869037 L785.172778,31.3421735 L754.434435,33.7286103 L792.604453,18.8911992 L818.310527,12.5360144 L843.484841,8.83963145 L868.399759,7.7890805 L892.510552,9.38436158 L916.102555,13.1066841 L938.618066,18.9430783 L970.41993,31.6793874 L989.770819,42.5480504 L1007.78582,55.2713897 L1024.21851,69.3306149 L1038.79653,84.9721513 L1051.2475,101.677208 L1061.57144,119.705182 L1069.5219,138.174127 L1069.5219,128.719168 L1180.03727,128.758078 L1179.98539,259.428459 L1180.19291,392.731702 L1180.19291,395.922264 L1181.25643,398.023366 L1181.78819,398.581066 L1182.31995,398.581066 L1183.35753,399.086887 L1209.59536,399.112827 L1209.64724,285.938658 L1224.74405,285.938658 L1225.01641,296.003196 L1226.87109,306.067733 L1229.78929,316.664031 L1234.01743,327.273299 L1239.03673,337.882567 L1244.86015,348.219469 L1251.50067,358.284007 L1262.61576,372.083837 L1270.56623,380.566063 L1278.77609,388.244164 L1287.25832,394.884683 L1295.7146,400.176347 L1304.19683,404.43043 L1312.43263,406.816867 L1324.07948,407.620992 L1328.59296,407.089232 L1333.10644,406.025711 L1337.33458,404.702795 L1341.3163,402.848119 L1345.01268,400.721077 L1348.46264,398.334641 L1351.40677,395.675839 L1355.63492,391.1883 L1359.889,384.301355 L1361.45834,380.319637 L1362.8072,376.337919 L1363.87072,372.083837 L1364.40248,367.855693 L1364.66187,360.968748 L1362.30138,346.390732 L1356.72438,334.458549 L1348.77391,325.185167 L1338.72234,317.753491 L1326.79016,311.917097 L1313.54803,307.144224 L1299.51474,303.162506 L1277.50505,296.794351 L1263.47177,292.008508 L1249.69788,286.185084 L1237.23393,279.012804 L1226.6506,269.467057 L1218.9725,259.389549 L1217.62365,257.534873 L1211.2944,242.697462 L1207.57208,213.528461 L1208.12978,201.609247 L1209.98446,190.481189 L1212.90265,180.144286 L1216.91031,170.611509 L1221.92961,161.869887 L1227.50661,153.919421 L1233.86179,146.760111 L1244.47106,137.486729 L1251.88977,132.195065 L1259.30847,127.681587 L1267.25894,124.244599 L1274.96298,121.339372 L1282.64108,118.952935 L1290.05979,117.630019 L1300.39669,116.838864 L1307.56897,117.630019 L1314.71531,118.965905 L1321.60225,121.092947 L1328.4892,123.751748 L1334.84438,126.41055 L1340.95314,129.328747 L1346.77657,131.987549 L1354.72703,134.905746 L1359.48694,135.969267 L1364.00042,136.241632 L1367.98213,135.178111 L1371.43209,132.791674 L1374.59671,128.550561 L1377.25551,122.714167 L1380.19965,109.990828 L1395.29646,109.990828 L1395.24458,232.178983 L1380.12183,232.166013 L1378.55249,222.360871 L1376.42545,212.555728 L1373.50725,203.009982 L1369.81087,193.7366 L1365.58273,184.982008 L1360.82282,176.499782 L1355.50522,168.808712 L1346.7636,157.940049 L1340.68078,151.571894 L1334.32559,146.007865 L1327.68507,140.962626 L1321.07049,136.980909 L1314.18355,133.530951 L1307.54303,131.40391 L1298.02322,129.549233 L1294.0415,129.808629 L1290.31918,130.340389 L1286.33746,131.663305 L1282.64108,133.258586 L1278.9447,135.113262 L1275.22237,137.499699 L1271.77242,140.145531 L1266.98657,144.659009 L1264.06838,148.108967 L1261.68194,151.558924 L1259.2955,155.268277 L1257.41489,158.96466 L1256.09197,162.946378 L1255.02845,166.915126 L1254.49669,172.492125 L1256.09197,186.53838 L1261.11127,197.666438 L1269.06174,206.680425 L1279.39864,213.839735 L1291.57725,219.403764 L1305.35114,224.449003 L1319.91618,228.690116 L1342.71703,235.590031 L1357.83978,240.635269 L1372.40482,247.003424 L1385.64695,254.95389 L1390.93862,259.467368 L1397.2938,264.772002 L1407.09894,277.235946 L1414.24528,292.618087 L1419.26458,321.774119 L1418.73282,331.851626 L1417.40991,341.656768 L1414.75111,351.202515 L1411.02878,360.203532 L1406.26888,368.971093 L1400.69188,377.180954 L1394.58312,384.859055 L1383.97385,395.195958 L1376.29575,401.304717 L1368.08589,406.570441 L1359.85009,411.08392 L1351.10847,415.065637 L1342.36685,417.983834 L1333.59929,420.084936 L1320.88892,421.148457 L1313.47021,420.876092 L1306.05151,419.306751 L1298.6328,416.894374 L1290.9547,413.976177 L1283.00423,410.785615 L1275.58553,407.620992 L1268.16682,404.702795 L1257.58349,401.226898 L1250.94297,399.903982 L1244.86015,399.631617 L1239.28316,400.695138 L1234.49731,403.613335 L1230.54153,408.126813 L1227.35097,414.767333 L1224.69217,429.332379 L1209.56942,429.332379 L1209.59536,408.917969 L1056.13711,408.84015 L1056.13711,399.035008 L1098.01648,399.060948 L1098.8206,398.801552 L1099.33939,398.801552 L1099.88412,398.529187 L1100.68825,397.738032 L1100.94764,397.206271 L1100.94764,396.674511 L1101.22001,396.14275 L1101.22001,393.756314 L1101.49237,392.692793 L1101.55722,259.37658 L1101.6091,138.524311 L1069.69051,138.511341 L1069.80724,138.783706 L1079.32705,178.26367 L1081.16875,203.982714 L1080.10523,228.625267 L1075.85115,252.73606 L1073.73708,259.35064 L1068.69184,275.523937 L1059.13312,297.261263 L1047.46033,317.390338 L1026.2418,344.951088 L1010.0685,360.85202 L992.299923,374.885306 L973.74019,386.532155 L954.116935,396.051962 L933.961921,403.224242 L913.288116,407.452385 L892.873706,408.775301 L824.23771,408.723422 L694.890245,408.671543 L694.890245,398.866401 L726.705078,398.892341 L727.496234,398.619976 L728.027994,398.619976 L728.300359,398.36058 L728.832119,398.088215 L729.36388,397.556455 L729.36388,397.024694 L729.89564,395.987113 L729.89564,393.574737 L730.168005,392.511216 L730.219884,259.207973 L730.258794,168.575256 L728.144722,153.98427 L724.707734,145.774409 L720.207226,139.67862 L714.643197,135.178111 L708.028616,132.519309 L700.869306,131.987549 L693.437631,133.842225 L682.050177,141.260931 L674.618502,149.211397 L667.731557,160.06709 L661.622798,173.84098 L656.577559,190.533068 L652.595841,210.402748 L649.93704,233.722385 L649.132914,259.169063 L649.132914,260.232584 L649.068065,392.524186 L648.80867,393.847102 L648.80867,395.442383 L648.536305,395.974143 L648.536305,397.037664 L649.068065,398.101185 L649.34043,398.36058 L649.872191,398.632945 L650.676316,398.632945 L651.467472,398.892341 L680.623503,398.91828 L680.623503,408.723422 L509.215091,408.515906 L509.176181,408.165722 C505.907801,408.373239 502.522692,408.515906 499.098674,408.515906 C469.112578,408.515906 442.278134,389.411442 438.192658,358.335886 C413.679802,389.411442 396.767229,408.515906 358.610181,408.515906 C326.172799,408.515906 275.461018,386.24682 275.719422,320.554961 C276.122476,219.416734 376.884579,218.768246 438.192658,222.308992 L438.192658,153.335782 L438.166719,153.335782 L438.166719,153.335782 Z M438.166719,237.146403 C395.937164,237.146403 348.390006,234.241175 347.222727,309.323144 C346.548299,352.875615 359.479155,373.860694 391.501504,373.860694 C415.339932,373.860694 425.248833,354.78217 433.406815,332.17587 C437.492291,321.579572 438.166719,308.843263 438.166719,295.419556 L438.166719,237.146403 Z M12.9529768,176.214447 L8.42652888,166.318517 L4.75608541,152.622445 L3.18674386,140.716201 L2.94031833,128.978564 L3.8741414,117.176078 L6.11791073,105.555168 L8.85453112,96.0742701 L10.462782,89.0446575 L14.9762601,77.9165992 L20.553259,67.5926664 L27.1808089,57.7875241 L34.8718795,48.7865073 L47.8675839,37.1396584 L57.4003611,30.2527133 L68.1393264,24.4292888 L77.814771,19.3970201 L88.4110689,15.428272 L99.5391272,12.78244 L110.667185,10.9277636 L127.631638,10.3960032 L139.563822,11.731889 L150.69188,13.8589305 L161.028783,16.5177323 L170.56156,19.7082944 L179.303181,22.8988566 L187.253647,26.348814 L194.412957,29.5393762 L203.686339,33.248729 L208.990973,34.84401 L213.491481,35.3757704 L217.732595,34.8569798 L221.182552,32.9893337 L223.841354,29.2799809 L226.227791,23.9883168 L228.886592,12.0561331 L243.996368,12.0691029 L243.944489,138.226006 L228.562348,138.226006 L226.707672,125.230302 L224.321235,113.038723 L220.884247,101.378904 L216.643134,90.5232107 L211.610866,80.4457034 L206.046836,71.1723215 L199.951047,62.6900952 L189.627114,51.562037 L182.208409,44.9344871 L174.530308,39.3574882 L166.579842,34.5846147 L158.629376,30.875262 L150.419515,27.9440951 L141.950258,25.8170537 L129.758679,24.4811679 L121.548818,24.7405632 L113.870717,25.8040839 L106.711407,27.6587603 L100.083857,30.045197 L93.9880678,32.9633941 L88.683434,36.6727469 L83.6381954,40.6414949 L77.2700409,47.2690448 L73.5606881,52.0419183 L70.3830957,57.0741871 L67.996659,62.1064558 L65.8566478,67.1387246 L64.5337318,72.1709934 L63.7425761,76.879018 L63.470211,83.5065679 L66.3754384,102.857457 L73.5347486,118.771359 L84.1180767,132.026458 L97.891967,142.895121 L113.792899,152.181473 L131.289112,160.131939 L150.10824,167.563614 L178.991907,178.704642 L198.070431,186.927473 L216.085434,196.213825 L232.518127,207.082488 L246.823777,220.337587 L258.742991,236.510884 L266.952852,255.589408 L267.471643,259.039366 L271.284754,273.357986 L272.231547,291.645355 L271.427421,304.355724 L269.559775,317.079064 L266.641578,329.257673 L262.65986,341.189857 L257.614622,352.57731 L251.505862,363.692399 L244.618917,374.029301 L232.154973,388.347922 L223.140987,396.830148 L213.076449,404.222914 L202.467181,410.863434 L191.066758,416.155098 L178.888149,420.642636 L166.424205,423.560833 L146.541555,425.41551 L135.945257,425.143145 L125.076594,423.288468 L114.220901,420.629667 L103.352238,417.179709 L82.1596422,409.761004 L72.3545,406.038681 L58.0358796,401.525203 L49.5666231,399.398161 L41.8755525,398.607006 L35.2480027,399.112827 L29.6710038,401.499263 L25.1704953,405.480981 L21.9799332,412.121501 L20.3846521,426.440121 L2.62904397,426.440121 L2.70686256,258.922638 L2.71983233,235.862396 L20.4754405,235.875366 L21.0072008,250.453381 L22.3301168,258.935608 L23.3936376,265.290793 L27.3623856,280.400569 L32.6540497,295.78271 L39.2815995,310.892486 L46.9597003,325.470502 L55.7013219,339.789122 L70.0069725,359.671772 L80.0844799,371.603955 L90.6807778,382.213223 L101.277076,391.22721 L111.873374,398.90531 L122.210276,404.482309 L132.274814,407.932267 L146.593434,408.489967 L154.271535,407.141111 L161.690241,405.040009 L168.31779,402.381207 L174.685945,399.216585 L180.262944,395.494262 L185.554608,391.538484 L190.068086,387.025006 L196.176845,379.6063 L199.626803,374.314636 L202.545,369.022972 L204.931437,363.173608 L206.799083,357.350184 L208.394364,351.267364 L209.457885,345.171574 L210.534375,335.898193 L208.939094,316.547303 L202.856274,300.374007 L193.323497,287.118907 L180.340762,275.977879 L164.971591,266.963892 L147.747743,259.013426 L129.200979,251.841146 L100.317313,240.972483 L80.9664239,233.009048 L62.6790554,223.982091 L45.986968,212.854033 L31.0847081,199.572994 L20.8256241,187.965054 L12.9529768,176.214447 L12.9529768,176.214447 Z M1610.94474,259.635975 L1684.0553,372.576688 L1688.03702,377.894291 L1691.7334,382.654195 L1695.18336,386.350578 L1698.63332,389.826475 L1701.79794,392.459337 L1704.71614,394.586379 L1709.22962,396.972815 L1711.88842,398.036336 L1717.71184,399.099857 L1720.63004,399.372222 L1723.54824,399.372222 L1726.46643,399.631617 L1729.91639,399.372222 L1729.91639,409.177364 L1586.79504,409.099546 L1586.79504,399.294403 L1608.53236,399.320343 L1609.59588,399.047978 L1610.12764,398.516217 L1610.6594,398.256822 L1610.93177,397.725062 L1610.93177,396.402146 L1610.6594,395.338625 L1607.49478,388.98344 L1606.14593,386.856399 L1604.57658,384.197597 L1530.93426,270.738094 L1530.1431,269.933968 L1529.07958,268.351657 L1528.54782,267.806927 L1527.7437,267.275167 L1527.23788,266.743406 L1526.43375,266.471041 L1525.11083,266.198676 L1524.31968,266.198676 L1523.25616,266.471041 L1522.19264,267.002801 L1520.86972,267.534562 L1517.1474,271.243915 L1517.09552,396.077902 L1518.15904,398.179004 L1518.6908,398.710764 L1519.22256,398.710764 L1520.26014,399.242524 L1568.2353,399.268464 L1568.2353,409.073606 L1393.03972,408.995787 L1393.03972,399.190645 L1434.91909,399.216585 L1435.72321,398.94422 L1436.25498,398.94422 L1436.51437,398.684824 L1437.04613,398.412459 L1437.83729,396.843118 L1437.83729,393.898981 L1438.10965,392.8614 L1438.16153,259.545187 L1438.26529,27.8922161 L1390.29013,27.8792463 L1390.31607,18.074104 L1517.25116,18.1259831 L1517.1474,248.702463 L1574.42188,182.997634 L1576.54892,180.092407 L1578.4036,177.70597 L1579.99888,174.515408 L1583.18944,167.628463 L1584.51236,163.659715 L1585.57588,159.950362 L1586.6394,154.373363 L1586.6394,150.66401 L1586.38,147.486418 L1585.31648,144.568221 L1583.46181,142.181784 L1580.803,140.327108 L1577.63838,139.263587 L1573.3843,138.718857 L1561.73745,138.718857 L1561.73745,128.913715 L1677.82982,128.965594 L1677.82982,138.770736 L1653.96545,138.757766 L1646.54674,139.821287 L1641.5015,141.416568 L1636.45627,143.803005 L1631.41103,146.721202 L1626.11936,150.15819 L1621.07412,154.139907 L1616.05483,158.640416 L1608.61018,166.059121 L1603.59088,171.350785 L1598.80504,176.914815 L1589.25929,188.574633 L1580.2453,200.234452 L1576.01716,205.798481 L1610.94474,259.635975 L1610.94474,259.635975 Z" id="形狀" fill="#000000"></path>
        </g>
    </g>
</svg>