<?xml version="1.0" encoding="UTF-8"?>
<svg width="481px" height="77px" viewBox="0 0 481 77" version="1.1" xmlns="http://www.w3.org/2000/svg" xmlns:xlink="http://www.w3.org/1999/xlink">
    <title>形狀</title>
    <g id="Page-1" stroke="none" stroke-width="1" fill="none" fill-rule="evenodd">
        <path d="M51.8491042,3.21082254 L51.8491042,17.217085 C45.188049,14.8871971 37.8940185,13.5269735 32.0787261,13.5269735 C24.9005166,13.5269735 20.9060383,15.7141053 20.9060383,19.6439393 C20.9060383,22.1515989 22.6541276,23.8134959 27.669447,26.0679654 L41.1585551,32.1202869 C51.9487642,36.9686085 57.3869649,44.041771 57.3869649,53.2320339 C57.3869649,67.4160682 45.1099372,76.363915 25.649313,76.363915 C18.5519088,76.363915 10.3420842,75.348461 1.64473399,73.3821972 L1.64473399,58.9045702 C10.2666659,61.2506192 18.1640431,62.5031023 24.307944,62.5031023 C32.3534643,62.5031023 36.6630835,60.2621003 36.6630835,56.0844632 C36.6630835,53.57411 34.9796385,51.7290543 31.1252229,50.0079001 L16.3620836,43.4330373 C5.4183443,38.5523935 0.368009297,31.9775307 0.368009297,22.604109 C0.368009297,9.1715646 12.2006075,0.606196435 30.7642923,0.606196435 C37.2637367,0.606196435 45.2634674,1.59471534 51.8491042,3.21082254 L51.8491042,3.21082254 Z M67.8916617,2.07416048 L89.7064154,2.07416048 L89.7064154,74.895951 L67.8916617,74.895951 L67.8916617,2.07416048 Z M160.634667,2.07416048 L160.634667,15.4151254 L127.701096,15.4151254 L127.701096,31.8401616 L156.470497,31.8401616 L156.470497,43.9070954 L127.701096,43.9070954 L127.701096,60.9354783 L161.060242,60.9354783 L161.060242,74.895951 L106.503156,74.895951 L106.503156,2.07416048 L160.634667,2.07416048 Z M263.693823,2.07416048 L263.693823,74.895951 L242.587463,74.895951 L242.587463,26.9649049 L221.912065,75.464282 L208.568407,75.464282 L188.033071,26.9649049 L188.033071,74.895951 L173.458478,74.895951 L173.458478,2.07416048 L200.097311,2.07416048 L218.930347,46.3689654 L237.666417,2.07416048 L263.693823,2.07416048 L263.693823,2.07416048 Z M334.678639,2.07416048 L334.678639,15.4151254 L301.696584,15.4151254 L301.696584,31.8401616 L330.457905,31.8401616 L330.457905,43.9070954 L301.696584,43.9070954 L301.696584,60.9354783 L335.050343,60.9354783 L335.050343,74.895951 L280.444774,74.895951 L280.444774,2.07416048 L334.678639,2.07416048 Z M411.516455,2.07416048 L411.516455,74.895951 L388.236431,74.895951 L362.023172,28.1904529 L362.023172,74.895951 L347.445885,74.895951 L347.445885,2.07416048 L371.34003,2.07416048 L396.990345,48.1628444 L396.990345,2.07416048 L411.516455,2.07416048 Z M474.824762,3.21082254 L474.824762,17.217085 C468.21219,14.9033581 460.872369,13.5269735 455.164817,13.5269735 C447.87348,13.5269735 443.881696,15.6790896 443.881696,19.6223912 C443.881696,22.1920016 445.51127,23.7273035 450.698975,26.0706589 L464.128825,32.1229804 C474.997146,37.0224787 480.368009,44.0336905 480.368009,53.3316939 C480.368009,67.4403098 468.080208,76.3693021 448.66268,76.3693021 C441.554501,76.3693021 433.312355,75.348461 424.625778,73.3875843 L424.625778,58.9099573 C433.236936,61.2506192 441.118152,62.5084893 447.221651,62.5084893 C455.213301,62.5084893 459.641434,60.2674873 459.641434,56.2218323 C459.641434,53.5444813 458.089972,51.8179401 454.049704,50.0132871 L439.345821,43.4384243 C428.334744,38.5200714 423.343667,32.0206269 423.343667,22.6121895 C423.343667,9.18772568 435.181652,0.616921187 453.70224,0.616921187 C460.22054,0.608889947 468.252592,1.59471534 474.824762,3.21082254 L474.824762,3.21082254 Z" id="形狀" fill="#00A0B0" fill-rule="nonzero"></path>
    </g>
</svg>