<svg xmlns="http://www.w3.org/2000/svg" width="335.3" height="101.42" viewBox="0 0 335.3 101.42"><g id="圖層_2" data-name="圖層 2"><g id="圖層_1-2" data-name="圖層 1"><path d="M44.08,95.87c-10.92-2.45-18.15-10.52-19.65-22l-.22-1.67H73.12l-.21,2.24A26.28,26.28,0,0,1,69.16,85,25.37,25.37,0,0,1,54.23,95.58a41.87,41.87,0,0,1-10.15.29Z" style="fill:#fff"/><path d="M192.64,73.32a19.25,19.25,0,0,1-10.35-4c-2.73-2.23-4.74-6.86-4.74-10.95V56.47h9.68l.39,2.27c.5,2.89,1.5,4.5,3.56,5.71,1.42.83,2,1,4.44,1,5.71,0,9.62-3.29,8.75-7.3-.6-2.75-2.85-4.21-8.93-5.79-4.74-1.23-7.22-2.26-10.1-4.22a15.09,15.09,0,0,1-5.71-6.71,14.42,14.42,0,0,1,.46-9.93c1.84-3.94,6.56-7.41,11.85-8.71,3-.73,8.85-.55,11.4.37A14.84,14.84,0,0,1,213.56,35.6l.22,1.92H209c-5.21,0-4.77.19-5.33-2.28-.62-2.78-2.71-4.49-6-4.93C191,29.43,186.58,36,191,40.24c1.32,1.27,2.3,1.68,8.68,3.62,8.43,2.57,12,4.72,14,8.56.86,1.63.93,2.09.93,6,0,4.05,0,4.31-1.14,6.54-2.51,5.11-7.9,8-15.69,8.47a36.69,36.69,0,0,1-5.09-.09Z" style="fill:#fff"/><path d="M140.59,55.4c-4-9.35-7.44-17.15-7.61-17.33s-.33,6.3-.33,16.76V71.92l-5.17-.1-5.18-.09-.09-24.28-.09-24.28,7.75-.1c4.87-.07,7.86,0,8,.25s2.45,5.76,5.1,12.38,4.88,12,5,11.88,2.32-5.57,5-12.21l4.82-12,8-.1,8-.09V71.9H163.17v-17c0-9.36-.12-17-.26-17s-3.24,7-6.88,15.52-7,16.29-7.38,17.25l-.77,1.73Z" style="fill:#fff"/><path d="M21.1,71.56A22.68,22.68,0,0,1,7.24,64.75C1.65,59.08-.44,53.45.07,45.42A21.87,21.87,0,0,1,6.53,30.76a23.11,23.11,0,0,1,15-7.45l2.68-.25V24.8c0,4.11,2.24,9.82,5.45,13.84a26,26,0,0,0,13.41,8.3l2.71.63-1.74.27c-5.06.79-11.45,4.68-14.72,9a22.45,22.45,0,0,0-5.06,12.29C24.05,72,24.14,72,21.1,71.56Z" style="fill:#fff"/><path d="M73.36,70.59a24.32,24.32,0,0,0-2.64-9.5A25.2,25.2,0,0,0,62,51.32c-2.79-1.84-7.38-3.6-9.53-3.65-1.31,0-1.26-.06.74-.5A35.56,35.56,0,0,0,62,43.73a25.82,25.82,0,0,0,11.1-17.68l.39-2.91H75c4,0,9.87,2.44,14,5.82a24.35,24.35,0,0,1,7.93,24.2C94.3,63.19,86.68,70,76.28,71.53c-1.39.2-2.61.37-2.72.37S73.36,71.31,73.36,70.59Z" style="fill:#fff"/><path d="M258,35.13a20.62,20.62,0,0,0-9.23-8.84c-5.57-2.86-7.55-3.2-19.34-3.41l-10.09-.17V72l10.26-.17c9.23-.15,10.56-.24,13.23-1a41.6,41.6,0,0,0,4.53-1.46,23.91,23.91,0,0,0,11.26-10.64C262,51.51,261.78,41.9,258,35.13ZM246.71,57.89a14,14,0,0,1-7.25,4.35,26.82,26.82,0,0,1-5.85.54h-3.79V31.91h3.25c7.16,0,11.7,2,14.65,6.31,2,3,2.55,5.25,2.37,10S249.14,55.16,246.71,57.89Z" style="fill:#fff"/><path d="M24.76,20.63A23.8,23.8,0,0,1,33.55,5.27,30.63,30.63,0,0,1,43,.52,31.81,31.81,0,0,1,53.33.33,25.22,25.22,0,0,1,70.17,12.9c1.59,3.15,2.85,7,2.85,8.7v1.19H24.52Z" style="fill:#fff"/><path d="M122.58,101.16V86h3.06v15.19Z" style="fill:#fff"/><path d="M128.81,101.16V86h3L138,96.12V86h2.85v15.19h-3.08l-6.12-9.9v9.9Z" style="fill:#fff"/><path d="M148.19,101.16,142.76,86h3.32l3.85,11.25L153.65,86h3.25l-5.44,15.19Z" style="fill:#fff"/><path d="M158.68,101.16V86h11.26v2.58h-8.2v3.36h7.63v2.56h-7.63V98.6h8.49v2.56Z" style="fill:#fff"/><path d="M173.07,101.16V86h3l6.21,10.15V86h2.85v15.19H182l-6.12-9.9v9.9Z" style="fill:#fff"/><path d="M192,101.16V88.55h-4.51V86h12.07v2.58h-4.5v12.61Z" style="fill:#fff"/><path d="M201.66,101.16V86h3.06v15.19Z" style="fill:#fff"/><path d="M207.89,101.16V86h3l6.22,10.15V86h2.85v15.19h-3.08l-6.12-9.9v9.9Z" style="fill:#fff"/><path d="M230.46,95.58V93h6.61v6a8.35,8.35,0,0,1-2.79,1.64,10.26,10.26,0,0,1-3.71.71,8.28,8.28,0,0,1-4.15-1,6.35,6.35,0,0,1-2.66-2.86,9.17,9.17,0,0,1-.89-4,8.75,8.75,0,0,1,1-4.21,6.69,6.69,0,0,1,2.91-2.83,7.94,7.94,0,0,1,3.64-.76,7.24,7.24,0,0,1,4.41,1.19,5.33,5.33,0,0,1,2.05,3.28l-3.05.57a3.12,3.12,0,0,0-1.2-1.76,3.6,3.6,0,0,0-2.21-.66,4.17,4.17,0,0,0-3.2,1.28A5.37,5.37,0,0,0,226,93.39a6,6,0,0,0,1.21,4.06,4,4,0,0,0,3.15,1.35,5.34,5.34,0,0,0,1.93-.38A6.57,6.57,0,0,0,234,97.5V95.58Z" style="fill:#fff"/><path d="M244.33,101.16V86h10.41v2.58h-7.35v3.59h6.34v2.57h-6.34v6.45Z" style="fill:#fff"/><path d="M256.18,93.66a9.76,9.76,0,0,1,.69-3.9,7.32,7.32,0,0,1,1.42-2.08,5.78,5.78,0,0,1,2-1.36,8.2,8.2,0,0,1,3.28-.61,7.13,7.13,0,0,1,5.37,2.09,9.3,9.3,0,0,1,0,11.54,7,7,0,0,1-5.34,2.08,7.14,7.14,0,0,1-5.39-2.07A7.83,7.83,0,0,1,256.18,93.66Zm3.16-.1a5.73,5.73,0,0,0,1.19,3.91,3.88,3.88,0,0,0,3,1.33,3.83,3.83,0,0,0,3-1.32,5.79,5.79,0,0,0,1.18-4,5.7,5.7,0,0,0-1.14-3.89,3.87,3.87,0,0,0-3-1.29,3.9,3.9,0,0,0-3.06,1.31A5.74,5.74,0,0,0,259.34,93.56Z" style="fill:#fff"/><path d="M272.85,101.16V86h6.45a11.09,11.09,0,0,1,3.54.41,3.46,3.46,0,0,1,1.77,1.46,4.36,4.36,0,0,1,.66,2.39,4,4,0,0,1-1,2.83,4.87,4.87,0,0,1-3,1.4,7.11,7.11,0,0,1,1.64,1.27,17.22,17.22,0,0,1,1.75,2.47l1.85,3h-3.67l-2.21-3.3A22.57,22.57,0,0,0,279,95.62a2.53,2.53,0,0,0-.92-.63,5.19,5.19,0,0,0-1.55-.17h-.62v6.34Zm3.06-8.76h2.27a12,12,0,0,0,2.76-.19,1.69,1.69,0,0,0,.86-.64,2,2,0,0,0,.31-1.14,1.82,1.82,0,0,0-.41-1.24,1.91,1.91,0,0,0-1.16-.6c-.25,0-1,0-2.23,0h-2.4Z" style="fill:#fff"/><path d="M292.65,101.16V86.1h3.07V98.6h7.62v2.56Z" style="fill:#fff"/><path d="M305.23,101.16V86h3.06v15.19Z" style="fill:#fff"/><path d="M311,101.16V86h10.41v2.58h-7.34v3.59h6.34v2.57h-6.34v6.45Z" style="fill:#fff"/><path d="M323.75,101.16V86H335v2.58h-8.2v3.36h7.63v2.56h-7.63V98.6h8.49v2.56Z" style="fill:#fff"/></g></g></svg>